ply
format ascii 1.0
comment Created by Blender 2.72 (sub 0) - www.blender.org, source file: 'table.blend'
element vertex 4
property float x
property float y
property float z
property float nx
property float ny
property float nz
element face 2
property list uchar uint vertex_indices
end_header
5.808484 9.593849 -5.555173 -1.000000 0.000000 -0.000000
5.808483 -0.267122 -5.555173 -1.000000 0.000000 -0.000000
5.808481 -0.267122 5.680691 -1.000000 0.000000 -0.000000
5.808482 9.593849 5.680691 -1.000000 0.000000 -0.000000
3 0 1 2
3 3 0 2
