ply
format ascii 1.0
element vertex 26
property float x
property float y
property float z
property float nx
property float ny
property float nz
element face 12
property list uchar uint vertex_indices
end_header
27.247358 27.247356 -27.247358 0.000000 0.000000 -1.000000
27.247358 -27.247358 -27.247358 0.000000 0.000000 -1.000000
-27.247362 -27.247353 -27.247358 0.000000 0.000000 -1.000000
-27.247356 27.247358 27.247358 0.000000 -0.000000 1.000000
-27.247368 -27.247349 27.247358 0.000000 -0.000000 1.000000
27.247341 -27.247375 27.247358 0.000000 -0.000000 1.000000
27.247372 27.247343 27.247358 1.000000 -0.000001 0.000000
27.247341 -27.247375 27.247358 1.000000 -0.000001 0.000000
27.247358 -27.247358 -27.247358 1.000000 -0.000001 0.000000
27.247341 -27.247375 27.247358 -0.000000 -1.000000 0.000000
-27.247368 -27.247349 27.247358 -0.000000 -1.000000 0.000000
-27.247362 -27.247353 -27.247358 -0.000000 -1.000000 0.000000
-27.247362 -27.247353 -27.247358 -1.000000 0.000000 -0.000000
-27.247368 -27.247349 27.247358 -1.000000 0.000000 -0.000000
-27.247356 27.247358 27.247358 -1.000000 0.000000 -0.000000
27.247372 27.247343 27.247358 0.000000 1.000000 0.000000
27.247358 27.247356 -27.247358 0.000000 1.000000 0.000000
-27.247349 27.247368 -27.247358 0.000000 1.000000 0.000000
-27.247349 27.247368 -27.247358 0.000000 0.000000 -1.000000
27.247372 27.247343 27.247358 -0.000000 -0.000000 1.000000
27.247358 27.247356 -27.247358 1.000000 0.000000 -0.000000
27.247372 27.247343 27.247358 1.000000 0.000000 -0.000000
27.247358 -27.247358 -27.247358 1.000000 0.000000 -0.000000
27.247358 -27.247358 -27.247358 -0.000000 -1.000000 -0.000000
-27.247349 27.247368 -27.247358 -1.000000 0.000000 -0.000000
-27.247356 27.247358 27.247358 0.000000 1.000000 0.000000
3 0 1 2
3 3 4 5
3 6 7 8
3 9 10 11
3 12 13 14
3 15 16 17
3 18 0 2
3 19 3 5
3 20 21 22
3 23 9 11
3 24 12 14
3 25 15 17
