ply
format ascii 1.0
comment Created by Blender 2.70 (sub 0) - www.blender.org, source file: ''
element vertex 8
property float x
property float y
property float z
property float nx
property float ny
property float nz
element face 12
property list uchar uint vertex_indices
end_header
1.000000 1.000000 -1.000000 0.577349 0.577349 -0.577349
1.000000 -1.000000 -1.000000 0.577349 -0.577349 -0.577349
-1.000000 -1.000000 -1.000000 -0.577349 -0.577349 -0.577349
-1.000000 1.000000 1.000000 -0.577349 0.577349 0.577349
-1.000000 -1.000000 1.000000 -0.577349 -0.577349 0.577349
0.999999 -1.000001 1.000000 0.577349 -0.577349 0.577349
1.000000 0.999999 1.000000 0.577349 0.577349 0.577349
-1.000000 1.000000 -1.000000 -0.577349 0.577349 -0.577349
3 0 1 2
3 3 4 5
3 6 5 1
3 5 4 2
3 2 4 3
3 6 0 7
3 7 0 2
3 6 3 5
3 0 6 1
3 1 5 2
3 7 2 3
3 3 6 7
