ply
format ascii 1.0
comment Created by Blender 2.71 (sub 0) - www.blender.org, source file: 'table.blend'
element vertex 240
property float x
property float y
property float z
property float nx
property float ny
property float nz
element face 80
property list uchar uint vertex_indices
end_header
-1.136150 3.683052 0.403965 -0.102381 -0.943524 -0.315089
-1.285259 3.735409 0.295632 -0.102381 -0.943524 -0.315089
-1.079197 3.735409 0.228677 -0.102381 -0.943524 -0.315089
-1.389832 3.876845 0.219656 -0.700224 -0.661699 -0.268032
-1.285259 3.735409 0.295632 -0.700224 -0.661699 -0.268032
-1.434370 3.849319 0.403965 -0.700224 -0.661699 -0.268032
-1.136150 3.683052 0.403965 0.268033 -0.943523 -0.194736
-1.079197 3.735409 0.228677 0.268033 -0.943523 -0.194736
-0.951841 3.735410 0.403965 0.268033 -0.943523 -0.194736
-1.136150 3.683052 0.403965 0.268033 -0.943523 0.194736
-0.951841 3.735410 0.403965 0.268033 -0.943523 0.194736
-1.079197 3.735409 0.579252 0.268033 -0.943523 0.194736
-1.136150 3.683052 0.403965 -0.102381 -0.943524 0.315089
-1.079197 3.735409 0.579252 -0.102381 -0.943524 0.315089
-1.285259 3.735409 0.512298 -0.102381 -0.943524 0.315089
-1.389832 3.876845 0.219656 -0.904989 -0.330384 -0.268032
-1.434370 3.849319 0.403965 -0.904989 -0.330384 -0.268032
-1.469571 4.033631 0.295631 -0.904989 -0.330384 -0.268032
-1.039255 3.876845 0.105745 -0.024747 -0.330386 -0.943521
-1.228307 3.849318 0.120342 -0.024747 -0.330386 -0.943521
-1.136150 4.033631 0.053386 -0.024747 -0.330386 -0.943521
-0.822583 3.876847 0.403965 0.889697 -0.330385 -0.315094
-0.894886 3.849319 0.228676 0.889697 -0.330385 -0.315094
-0.802730 4.033631 0.295631 0.889697 -0.330385 -0.315094
-1.039255 3.876845 0.702184 0.574602 -0.330387 0.748783
-0.894886 3.849319 0.579253 0.574602 -0.330387 0.748783
-0.930085 4.033631 0.687589 0.574602 -0.330387 0.748783
-1.389832 3.876845 0.588273 -0.534576 -0.330386 0.777864
-1.228307 3.849318 0.687587 -0.534576 -0.330386 0.777864
-1.342216 4.033631 0.687589 -0.534576 -0.330386 0.777864
-1.389832 3.876845 0.219656 -0.802609 -0.125627 -0.583126
-1.469571 4.033631 0.295631 -0.802609 -0.125627 -0.583126
-1.342216 4.033631 0.120340 -0.802609 -0.125627 -0.583126
-1.039255 3.876845 0.105745 0.306569 -0.125629 -0.943522
-1.136150 4.033631 0.053386 0.306569 -0.125629 -0.943522
-0.930085 4.033631 0.120340 0.306569 -0.125629 -0.943522
-0.822583 3.876847 0.403965 0.992077 -0.125629 0.000000
-0.802730 4.033631 0.295631 0.992077 -0.125629 0.000000
-0.802730 4.033631 0.512298 0.992077 -0.125629 0.000000
-1.039255 3.876845 0.702184 0.306569 -0.125629 0.943522
-0.930085 4.033631 0.687589 0.306569 -0.125629 0.943522
-1.136150 4.033631 0.754544 0.306569 -0.125629 0.943522
-1.389832 3.876845 0.588273 -0.802609 -0.125627 0.583126
-1.342216 4.033631 0.687589 -0.802609 -0.125627 0.583126
-1.469571 4.033631 0.512298 -0.802609 -0.125627 0.583126
-1.233046 4.190417 0.105745 -0.408947 0.661698 -0.628425
-1.377415 4.217943 0.228676 -0.408947 0.661698 -0.628425
-1.193104 4.331852 0.228677 -0.408947 0.661698 -0.628425
-0.882469 4.190416 0.219656 0.471300 0.661698 -0.583123
-1.043994 4.217943 0.120342 0.471300 0.661698 -0.583123
-0.987041 4.331852 0.295632 0.471300 0.661698 -0.583123
-0.882469 4.190416 0.588273 0.700225 0.661698 0.268033
-0.837931 4.217943 0.403965 0.700225 0.661698 0.268033
-0.987041 4.331852 0.512298 0.700225 0.661698 0.268033
-1.233046 4.190417 0.702184 -0.038529 0.661699 0.748779
-1.043994 4.217943 0.687587 -0.038529 0.661699 0.748779
-1.193104 4.331852 0.579252 -0.038529 0.661699 0.748779
-1.449717 4.190415 0.403965 -0.724042 0.661695 0.194737
-1.377415 4.217943 0.579253 -0.724042 0.661695 0.194737
-1.320460 4.331851 0.403965 -0.724042 0.661695 0.194737
-1.079197 3.735409 0.228677 0.038530 -0.661699 -0.748779
-1.228307 3.849318 0.120342 0.038530 -0.661699 -0.748779
-1.039255 3.876845 0.105745 0.038530 -0.661699 -0.748779
-1.079197 3.735409 0.228677 -0.187595 -0.794658 -0.577345
-1.285259 3.735409 0.295632 -0.187595 -0.794658 -0.577345
-1.228307 3.849318 0.120342 -0.187595 -0.794658 -0.577345
-1.285259 3.735409 0.295632 -0.471300 -0.661699 -0.583122
-1.389832 3.876845 0.219656 -0.471300 -0.661699 -0.583122
-1.228307 3.849318 0.120342 -0.471300 -0.661699 -0.583122
-1.434370 3.849319 0.403965 -0.700224 -0.661699 0.268032
-1.285259 3.735409 0.512298 -0.700224 -0.661699 0.268032
-1.389832 3.876845 0.588273 -0.700224 -0.661699 0.268032
-1.434370 3.849319 0.403965 -0.607060 -0.794656 -0.000000
-1.285259 3.735409 0.295632 -0.607060 -0.794656 -0.000000
-1.285259 3.735409 0.512298 -0.607060 -0.794656 -0.000000
-1.285259 3.735409 0.295632 -0.331304 -0.943524 0.000000
-1.136150 3.683052 0.403965 -0.331304 -0.943524 0.000000
-1.285259 3.735409 0.512298 -0.331304 -0.943524 0.000000
-0.951841 3.735410 0.403965 0.724043 -0.661695 -0.194736
-0.894886 3.849319 0.228676 0.724043 -0.661695 -0.194736
-0.822583 3.876847 0.403965 0.724043 -0.661695 -0.194736
-0.951841 3.735410 0.403965 0.491120 -0.794657 -0.356821
-1.079197 3.735409 0.228677 0.491120 -0.794657 -0.356821
-0.894886 3.849319 0.228676 0.491120 -0.794657 -0.356821
-1.079197 3.735409 0.228677 0.408946 -0.661698 -0.628425
-1.039255 3.876845 0.105745 0.408946 -0.661698 -0.628425
-0.894886 3.849319 0.228676 0.408946 -0.661698 -0.628425
-1.079197 3.735409 0.579252 0.408946 -0.661698 0.628425
-0.894886 3.849319 0.579253 0.408946 -0.661698 0.628425
-1.039255 3.876845 0.702184 0.408946 -0.661698 0.628425
-1.079197 3.735409 0.579252 0.491120 -0.794657 0.356821
-0.951841 3.735410 0.403965 0.491120 -0.794657 0.356821
-0.894886 3.849319 0.579253 0.491120 -0.794657 0.356821
-0.951841 3.735410 0.403965 0.724043 -0.661695 0.194736
-0.822583 3.876847 0.403965 0.724043 -0.661695 0.194736
-0.894886 3.849319 0.579253 0.724043 -0.661695 0.194736
-1.285259 3.735409 0.512298 -0.471300 -0.661699 0.583122
-1.228307 3.849318 0.687587 -0.471300 -0.661699 0.583122
-1.389832 3.876845 0.588273 -0.471300 -0.661699 0.583122
-1.285259 3.735409 0.512298 -0.187595 -0.794658 0.577345
-1.079197 3.735409 0.579252 -0.187595 -0.794658 0.577345
-1.228307 3.849318 0.687587 -0.187595 -0.794658 0.577345
-1.079197 3.735409 0.579252 0.038530 -0.661699 0.748779
-1.039255 3.876845 0.702184 0.038530 -0.661699 0.748779
-1.228307 3.849318 0.687587 0.038530 -0.661699 0.748779
-1.469571 4.033631 0.295631 -0.992077 0.125628 0.000000
-1.469571 4.033631 0.512298 -0.992077 0.125628 0.000000
-1.449717 4.190415 0.403965 -0.992077 0.125628 0.000000
-1.469571 4.033631 0.295631 -0.982246 -0.187598 0.000000
-1.434370 3.849319 0.403965 -0.982246 -0.187598 0.000000
-1.469571 4.033631 0.512298 -0.982246 -0.187598 0.000000
-1.434370 3.849319 0.403965 -0.904989 -0.330384 0.268032
-1.389832 3.876845 0.588273 -0.904989 -0.330384 0.268032
-1.469571 4.033631 0.512298 -0.904989 -0.330384 0.268032
-1.136150 4.033631 0.053386 -0.306569 0.125629 -0.943522
-1.342216 4.033631 0.120340 -0.306569 0.125629 -0.943522
-1.233046 4.190417 0.105745 -0.306569 0.125629 -0.943522
-1.136150 4.033631 0.053386 -0.303531 -0.187597 -0.934171
-1.228307 3.849318 0.120342 -0.303531 -0.187597 -0.934171
-1.342216 4.033631 0.120340 -0.303531 -0.187597 -0.934171
-1.228307 3.849318 0.120342 -0.534576 -0.330386 -0.777864
-1.389832 3.876845 0.219656 -0.534576 -0.330386 -0.777864
-1.342216 4.033631 0.120340 -0.534576 -0.330386 -0.777864
-0.802730 4.033631 0.295631 0.802609 0.125628 -0.583126
-0.930085 4.033631 0.120340 0.802609 0.125628 -0.583126
-0.882469 4.190416 0.219656 0.802609 0.125628 -0.583126
-0.802730 4.033631 0.295631 0.794656 -0.187595 -0.577348
-0.894886 3.849319 0.228676 0.794656 -0.187595 -0.577348
-0.930085 4.033631 0.120340 0.794656 -0.187595 -0.577348
-0.894886 3.849319 0.228676 0.574602 -0.330387 -0.748784
-1.039255 3.876845 0.105745 0.574602 -0.330387 -0.748784
-0.930085 4.033631 0.120340 0.574602 -0.330387 -0.748784
-0.930085 4.033631 0.687589 0.802609 0.125628 0.583126
-0.802730 4.033631 0.512298 0.802609 0.125628 0.583126
-0.882469 4.190416 0.588273 0.802609 0.125628 0.583126
-0.930085 4.033631 0.687589 0.794656 -0.187595 0.577348
-0.894886 3.849319 0.579253 0.794656 -0.187595 0.577348
-0.802730 4.033631 0.512298 0.794656 -0.187595 0.577348
-0.894886 3.849319 0.579253 0.889697 -0.330385 0.315094
-0.822583 3.876847 0.403965 0.889697 -0.330385 0.315094
-0.802730 4.033631 0.512298 0.889697 -0.330385 0.315094
-1.342216 4.033631 0.687589 -0.306569 0.125628 0.943522
-1.136150 4.033631 0.754544 -0.306569 0.125628 0.943522
-1.233046 4.190417 0.702184 -0.306569 0.125628 0.943522
-1.342216 4.033631 0.687589 -0.303531 -0.187597 0.934172
-1.228307 3.849318 0.687587 -0.303531 -0.187597 0.934172
-1.136150 4.033631 0.754544 -0.303531 -0.187597 0.934172
-1.228307 3.849318 0.687587 -0.024747 -0.330386 0.943521
-1.039255 3.876845 0.702184 -0.024747 -0.330386 0.943521
-1.136150 4.033631 0.754544 -0.024747 -0.330386 0.943521
-1.342216 4.033631 0.120340 -0.574602 0.330387 -0.748783
-1.377415 4.217943 0.228676 -0.574602 0.330387 -0.748783
-1.233046 4.190417 0.105745 -0.574602 0.330387 -0.748783
-1.342216 4.033631 0.120340 -0.794656 0.187595 -0.577348
-1.469571 4.033631 0.295631 -0.794656 0.187595 -0.577348
-1.377415 4.217943 0.228676 -0.794656 0.187595 -0.577348
-1.469571 4.033631 0.295631 -0.889697 0.330384 -0.315095
-1.449717 4.190415 0.403965 -0.889697 0.330384 -0.315095
-1.377415 4.217943 0.228676 -0.889697 0.330384 -0.315095
-0.930085 4.033631 0.120340 0.534576 0.330387 -0.777864
-1.043994 4.217943 0.120342 0.534576 0.330387 -0.777864
-0.882469 4.190416 0.219656 0.534576 0.330387 -0.777864
-0.930085 4.033631 0.120340 0.303531 0.187598 -0.934171
-1.136150 4.033631 0.053386 0.303531 0.187598 -0.934171
-1.043994 4.217943 0.120342 0.303531 0.187598 -0.934171
-1.136150 4.033631 0.053386 0.024747 0.330386 -0.943521
-1.233046 4.190417 0.105745 0.024747 0.330386 -0.943521
-1.043994 4.217943 0.120342 0.024747 0.330386 -0.943521
-0.802730 4.033631 0.512298 0.904989 0.330385 0.268032
-0.837931 4.217943 0.403965 0.904989 0.330385 0.268032
-0.882469 4.190416 0.588273 0.904989 0.330385 0.268032
-0.802730 4.033631 0.512298 0.982246 0.187599 -0.000000
-0.802730 4.033631 0.295631 0.982246 0.187599 -0.000000
-0.837931 4.217943 0.403965 0.982246 0.187599 -0.000000
-0.802730 4.033631 0.295631 0.904989 0.330385 -0.268032
-0.882469 4.190416 0.219656 0.904989 0.330385 -0.268032
-0.837931 4.217943 0.403965 0.904989 0.330385 -0.268032
-1.136150 4.033631 0.754544 0.024747 0.330386 0.943521
-1.043994 4.217943 0.687587 0.024747 0.330386 0.943521
-1.233046 4.190417 0.702184 0.024747 0.330386 0.943521
-1.136150 4.033631 0.754544 0.303531 0.187597 0.934171
-0.930085 4.033631 0.687589 0.303531 0.187597 0.934171
-1.043994 4.217943 0.687587 0.303531 0.187597 0.934171
-0.930085 4.033631 0.687589 0.534576 0.330387 0.777864
-0.882469 4.190416 0.588273 0.534576 0.330387 0.777864
-1.043994 4.217943 0.687587 0.534576 0.330387 0.777864
-1.469571 4.033631 0.512298 -0.889697 0.330384 0.315095
-1.377415 4.217943 0.579253 -0.889697 0.330384 0.315095
-1.449717 4.190415 0.403965 -0.889697 0.330384 0.315095
-1.469571 4.033631 0.512298 -0.794656 0.187595 0.577348
-1.342216 4.033631 0.687589 -0.794656 0.187595 0.577348
-1.377415 4.217943 0.579253 -0.794656 0.187595 0.577348
-1.342216 4.033631 0.687589 -0.574602 0.330388 0.748783
-1.233046 4.190417 0.702184 -0.574602 0.330388 0.748783
-1.377415 4.217943 0.579253 -0.574602 0.330388 0.748783
-1.193104 4.331852 0.228677 -0.268033 0.943523 -0.194736
-1.320460 4.331851 0.403965 -0.268033 0.943523 -0.194736
-1.136150 4.384210 0.403965 -0.268033 0.943523 -0.194736
-1.193104 4.331852 0.228677 -0.491120 0.794657 -0.356821
-1.377415 4.217943 0.228676 -0.491120 0.794657 -0.356821
-1.320460 4.331851 0.403965 -0.491120 0.794657 -0.356821
-1.377415 4.217943 0.228676 -0.724042 0.661695 -0.194737
-1.449717 4.190415 0.403965 -0.724042 0.661695 -0.194737
-1.320460 4.331851 0.403965 -0.724042 0.661695 -0.194737
-0.987041 4.331852 0.295632 0.102380 0.943524 -0.315089
-1.193104 4.331852 0.228677 0.102380 0.943524 -0.315089
-1.136150 4.384210 0.403965 0.102380 0.943524 -0.315089
-0.987041 4.331852 0.295632 0.187594 0.794657 -0.577346
-1.043994 4.217943 0.120342 0.187594 0.794657 -0.577346
-1.193104 4.331852 0.228677 0.187594 0.794657 -0.577346
-1.043994 4.217943 0.120342 -0.038529 0.661699 -0.748779
-1.233046 4.190417 0.105745 -0.038529 0.661699 -0.748779
-1.193104 4.331852 0.228677 -0.038529 0.661699 -0.748779
-0.987041 4.331852 0.512298 0.331303 0.943524 -0.000000
-0.987041 4.331852 0.295632 0.331303 0.943524 -0.000000
-1.136150 4.384210 0.403965 0.331303 0.943524 -0.000000
-0.987041 4.331852 0.512298 0.607061 0.794655 0.000000
-0.837931 4.217943 0.403965 0.607061 0.794655 0.000000
-0.987041 4.331852 0.295632 0.607061 0.794655 0.000000
-0.837931 4.217943 0.403965 0.700225 0.661698 -0.268033
-0.882469 4.190416 0.219656 0.700225 0.661698 -0.268033
-0.987041 4.331852 0.295632 0.700225 0.661698 -0.268033
-1.193104 4.331852 0.579252 0.102380 0.943524 0.315089
-0.987041 4.331852 0.512298 0.102380 0.943524 0.315089
-1.136150 4.384210 0.403965 0.102380 0.943524 0.315089
-1.193104 4.331852 0.579252 0.187594 0.794657 0.577346
-1.043994 4.217943 0.687587 0.187594 0.794657 0.577346
-0.987041 4.331852 0.512298 0.187594 0.794657 0.577346
-1.043994 4.217943 0.687587 0.471300 0.661698 0.583123
-0.882469 4.190416 0.588273 0.471300 0.661698 0.583123
-0.987041 4.331852 0.512298 0.471300 0.661698 0.583123
-1.320460 4.331851 0.403965 -0.268033 0.943523 0.194736
-1.193104 4.331852 0.579252 -0.268033 0.943523 0.194736
-1.136150 4.384210 0.403965 -0.268033 0.943523 0.194736
-1.320460 4.331851 0.403965 -0.491120 0.794657 0.356821
-1.377415 4.217943 0.579253 -0.491120 0.794657 0.356821
-1.193104 4.331852 0.579252 -0.491120 0.794657 0.356821
-1.377415 4.217943 0.579253 -0.408947 0.661698 0.628425
-1.233046 4.190417 0.702184 -0.408947 0.661698 0.628425
-1.193104 4.331852 0.579252 -0.408947 0.661698 0.628425
3 0 1 2
3 3 4 5
3 6 7 8
3 9 10 11
3 12 13 14
3 15 16 17
3 18 19 20
3 21 22 23
3 24 25 26
3 27 28 29
3 30 31 32
3 33 34 35
3 36 37 38
3 39 40 41
3 42 43 44
3 45 46 47
3 48 49 50
3 51 52 53
3 54 55 56
3 57 58 59
3 60 61 62
3 63 64 65
3 66 67 68
3 69 70 71
3 72 73 74
3 75 76 77
3 78 79 80
3 81 82 83
3 84 85 86
3 87 88 89
3 90 91 92
3 93 94 95
3 96 97 98
3 99 100 101
3 102 103 104
3 105 106 107
3 108 109 110
3 111 112 113
3 114 115 116
3 117 118 119
3 120 121 122
3 123 124 125
3 126 127 128
3 129 130 131
3 132 133 134
3 135 136 137
3 138 139 140
3 141 142 143
3 144 145 146
3 147 148 149
3 150 151 152
3 153 154 155
3 156 157 158
3 159 160 161
3 162 163 164
3 165 166 167
3 168 169 170
3 171 172 173
3 174 175 176
3 177 178 179
3 180 181 182
3 183 184 185
3 186 187 188
3 189 190 191
3 192 193 194
3 195 196 197
3 198 199 200
3 201 202 203
3 204 205 206
3 207 208 209
3 210 211 212
3 213 214 215
3 216 217 218
3 219 220 221
3 222 223 224
3 225 226 227
3 228 229 230
3 231 232 233
3 234 235 236
3 237 238 239
