ply
format ascii 1.0
comment Created by Blender 2.70 (sub 0) - www.blender.org, source file: ''
element vertex 507
property float x
property float y
property float z
property float nx
property float ny
property float nz
element face 968
property list uchar uint vertex_indices
end_header
0.468750 0.242187 0.757812 0.969298 -0.011811 0.245552
0.437500 0.164062 0.765625 0.728996 -0.656575 0.193426
0.500000 0.093750 0.687500 0.607624 -0.510392 0.608478
-0.500000 0.093750 0.687500 -0.607624 -0.510392 0.608478
-0.437500 0.164062 0.765625 -0.728996 -0.656575 0.193426
-0.468750 0.242187 0.757812 -0.969298 -0.011811 0.245552
0.562500 0.242187 0.671875 0.800104 -0.002838 0.599841
0.546875 0.054687 0.578125 0.680166 -0.546251 0.488815
-0.546875 0.054687 0.578125 -0.680166 -0.546251 0.488815
-0.562500 0.242187 0.671875 -0.800104 -0.002838 0.599841
0.351562 0.031250 0.718750 0.099490 -0.751457 0.652211
0.351562 -0.023438 0.617188 0.119327 -0.871151 0.476272
-0.351562 -0.023438 0.617188 -0.119327 -0.871151 0.476272
-0.351562 0.031250 0.718750 -0.099490 -0.751457 0.652211
0.351562 0.132812 0.781250 0.031404 -0.966948 0.252907
-0.351562 0.132812 0.781250 -0.031404 -0.966948 0.252907
0.273438 0.164062 0.796875 -0.653066 -0.686636 0.319315
0.203125 0.093750 0.742188 -0.456282 -0.535356 0.710746
-0.203125 0.093750 0.742188 0.456282 -0.535356 0.710746
-0.273438 0.164062 0.796875 0.653066 -0.686636 0.319315
0.156250 0.054687 0.648438 -0.553850 -0.633198 0.540635
-0.156250 0.054687 0.648438 0.553850 -0.633198 0.540635
0.140625 0.242187 0.742188 -0.689291 -0.004578 0.724418
0.078125 0.242187 0.656250 -0.809717 -0.006989 0.586749
-0.140625 0.242187 0.742188 0.689291 -0.004578 0.724418
0.242188 0.242187 0.796875 -0.952574 -0.013123 0.303995
-0.242188 0.242187 0.796875 0.952574 -0.013123 0.303995
0.273438 0.328125 0.796875 -0.664357 0.682058 0.305582
0.203125 0.390625 0.742188 -0.455947 0.522202 0.720664
-0.203125 0.390625 0.742188 0.455947 0.522202 0.720664
-0.273438 0.328125 0.796875 0.664357 0.682058 0.305582
0.156250 0.437500 0.648438 -0.530595 0.625751 0.571703
-0.078125 0.242187 0.656250 0.809717 -0.006989 0.586749
0.351562 0.453125 0.718750 0.103061 0.740196 0.664388
0.351562 0.515625 0.617188 0.125736 0.841578 0.525254
-0.351562 0.453125 0.718750 -0.103061 0.740196 0.664388
-0.156250 0.437500 0.648438 0.530595 0.625751 0.571703
0.351562 0.359375 0.781250 0.025727 0.972564 0.231147
-0.351562 0.359375 0.781250 -0.025727 0.972564 0.231147
0.437500 0.328125 0.765625 0.736381 0.652089 0.180273
0.500000 0.390625 0.687500 0.610218 0.495590 0.618061
-0.437500 0.328125 0.765625 -0.736381 0.652089 0.180273
0.546875 0.437500 0.578125 0.668203 0.537095 0.514786
-0.500000 0.390625 0.687500 -0.610218 0.495590 0.618061
-0.351562 0.515625 0.617188 -0.125736 0.841578 0.525254
0.625000 0.242187 0.562500 0.868221 -0.004730 0.496109
-0.546875 0.437500 0.578125 -0.668203 0.537095 0.514786
0.445312 0.335937 0.781250 0.721610 0.655568 0.222388
0.476562 0.242187 0.773438 0.964446 -0.012665 0.263863
-0.476562 0.242187 0.773438 -0.964446 -0.012665 0.263863
0.351562 0.375000 0.804688 0.043153 0.938902 0.341441
-0.445312 0.335937 0.781250 -0.721610 0.655568 0.222388
0.265625 0.335937 0.820312 -0.623676 0.628529 0.464675
-0.351562 0.375000 0.804688 -0.043153 0.938902 0.341441
0.226562 0.242187 0.820312 -0.926969 -0.012940 0.374859
-0.265625 0.335937 0.820312 0.623676 0.628529 0.464675
0.265625 0.156250 0.820312 -0.615864 -0.636616 0.464095
-0.265625 0.156250 0.820312 0.615864 -0.636616 0.464095
0.351562 0.117187 0.804688 0.042543 -0.940336 0.337474
-0.351562 0.117187 0.804688 -0.042543 -0.940336 0.337474
0.445312 0.156250 0.781250 0.715171 -0.662465 0.222724
-0.445312 0.156250 0.781250 -0.715171 -0.662465 0.222724
0.351562 0.242187 0.828125 0.183599 -0.005310 0.982971
-0.351562 0.242187 0.828125 -0.183599 -0.005310 0.982971
-0.226562 0.242187 0.820312 0.926969 -0.012940 0.374859
0.164062 -0.929688 0.632812 0.155370 -0.758965 0.632282
0.000000 -0.945313 0.640625 0.000000 -0.775323 0.631550
0.000000 -0.984375 0.578125 0.000000 -0.967650 0.252266
-0.164062 -0.929688 0.632812 -0.155370 -0.758965 0.632282
-0.179688 -0.968750 0.554687 -0.159551 -0.975249 0.152898
0.234375 -0.914063 0.632812 0.350230 -0.639149 0.684683
0.179688 -0.968750 0.554687 0.159551 -0.975249 0.152898
-0.234375 -0.914063 0.632812 -0.350230 -0.639149 0.684683
-0.328125 -0.945313 0.523437 -0.526658 -0.834651 0.161107
0.367188 -0.890625 0.531250 0.945708 -0.257851 0.197699
0.265625 -0.820313 0.664062 0.555650 -0.226356 0.799982
-0.265625 -0.820313 0.664062 -0.555650 -0.226356 0.799982
-0.367188 -0.890625 0.531250 -0.945708 -0.257851 0.197699
0.351562 -0.695313 0.570312 0.972808 0.100314 0.208716
0.250000 -0.703125 0.687500 0.565172 -0.029725 0.824396
-0.250000 -0.703125 0.687500 -0.565172 -0.029725 0.824396
-0.351562 -0.695313 0.570312 -0.972808 0.100314 0.208716
0.312500 -0.437500 0.570312 0.955718 0.249184 0.156468
0.210938 -0.445313 0.710937 0.593677 0.108158 0.797388
-0.210938 -0.445313 0.710937 -0.593677 0.108158 0.797388
-0.312500 -0.437500 0.570312 -0.955718 0.249184 0.156468
0.203125 -0.187500 0.562500 0.891537 -0.330668 0.309458
0.437500 -0.140625 0.531250 0.348827 -0.937132 -0.008148
0.398438 -0.046875 0.671875 0.344279 -0.546617 0.763298
-0.398438 -0.046875 0.671875 -0.344279 -0.546617 0.763298
-0.437500 -0.140625 0.531250 -0.348827 -0.937132 -0.008148
-0.203125 -0.187500 0.562500 -0.891537 -0.330668 0.309458
0.632812 -0.039063 0.539062 0.587481 -0.784875 0.196966
0.617188 0.054687 0.625000 0.499130 -0.376049 0.780663
-0.632812 -0.039063 0.539062 -0.587481 -0.784875 0.196966
0.828125 0.148437 0.445312 0.906980 -0.400922 -0.128941
0.726562 0.203125 0.601562 0.566546 -0.318796 0.759819
-0.726562 0.203125 0.601562 -0.566546 -0.318796 0.759819
-0.828125 0.148437 0.445312 -0.906980 -0.400922 -0.128941
0.859375 0.429687 0.593750 0.845119 0.443403 0.298502
0.742188 0.375000 0.656250 0.460707 -0.144810 0.875637
-0.859375 0.429687 0.593750 -0.845119 0.443403 0.298502
0.710938 0.484375 0.625000 0.517045 0.829127 0.212531
0.687500 0.414062 0.726563 0.480117 -0.183264 0.857814
-0.710938 0.484375 0.625000 -0.517045 0.829127 0.212531
-0.742188 0.375000 0.656250 -0.460707 -0.144810 0.875637
0.492188 0.601562 0.687500 0.597552 0.784722 0.164586
0.437500 0.546875 0.796875 0.308451 0.003845 0.951201
-0.492188 0.601562 0.687500 -0.597552 0.784722 0.164586
-0.687500 0.414062 0.726563 -0.480117 -0.183264 0.857814
0.320312 0.757812 0.734375 0.231269 0.956999 0.175054
0.312500 0.640625 0.835938 0.266579 0.216590 0.939146
-0.312500 0.640625 0.835938 -0.266579 0.216590 0.939146
-0.320312 0.757812 0.734375 -0.231269 0.956999 0.175054
0.156250 0.718750 0.757813 -0.605060 0.768029 0.209754
0.203125 0.617187 0.851563 -0.157384 0.166021 0.973449
-0.156250 0.718750 0.757813 0.605060 0.768029 0.209754
0.062500 0.492187 0.750000 -0.824183 0.546770 0.147313
0.101562 0.429687 0.843750 -0.061098 -0.025239 0.997803
-0.062500 0.492187 0.750000 0.824183 0.546770 0.147313
-0.203125 0.617187 0.851563 0.157384 0.166021 0.973449
0.000000 0.429687 0.742188 0.000000 0.963591 0.267281
0.000000 0.351562 0.820312 0.000000 -0.082736 0.996551
-0.101562 0.429687 0.843750 0.061098 -0.025239 0.997803
0.250000 0.468750 0.757813 0.258156 -0.126499 0.957762
-0.250000 0.468750 0.757813 -0.258156 -0.126499 0.957762
-0.164062 0.414062 0.773438 -0.367840 -0.283608 0.885556
0.328125 0.476562 0.742188 0.149022 -0.154149 0.976714
-0.328125 0.476562 0.742188 -0.149022 -0.154149 0.976714
-0.437500 0.546875 0.796875 -0.308451 0.003845 0.951201
-0.429688 0.437500 0.718750 -0.219001 0.037141 0.975005
0.429688 0.437500 0.718750 0.219001 0.037141 0.975005
-0.601562 0.375000 0.664062 -0.225410 -0.360759 0.904996
0.601562 0.375000 0.664062 0.225410 -0.360759 0.904996
-0.640625 0.296875 0.648438 -0.358806 -0.119175 0.925748
0.640625 0.296875 0.648438 0.358806 -0.119175 0.925748
-0.625000 0.187500 0.648438 -0.460219 -0.165105 0.872280
0.625000 0.187500 0.648438 0.460219 -0.165105 0.872280
-0.617188 0.054687 0.625000 -0.499130 -0.376049 0.780663
-0.492188 0.062500 0.671875 -0.427900 -0.389508 0.815577
0.492188 0.062500 0.671875 0.427900 -0.389508 0.815577
-0.375000 0.015625 0.703125 -0.158940 -0.498917 0.851924
0.203125 0.093750 0.742188 -0.128178 -0.292001 0.947752
0.125000 -0.101563 0.812500 0.056093 -0.263863 0.962920
-0.125000 -0.101563 0.812500 -0.056093 -0.263863 0.962920
-0.203125 0.093750 0.742188 0.128178 -0.292001 0.947752
0.164062 0.140625 0.750000 -0.239296 -0.301187 0.923032
0.000000 0.046875 0.726562 0.000000 0.064272 0.997925
-0.164062 0.140625 0.750000 0.239296 -0.301187 0.923032
0.125000 0.304687 0.765625 0.031587 -0.178167 0.983459
-0.125000 0.304687 0.765625 -0.031587 -0.178167 0.983459
0.000000 0.210937 0.765625 0.000000 -0.221992 0.975036
0.132812 0.210937 0.757812 -0.200568 -0.134953 0.970306
0.062500 -0.882813 0.695312 -0.058870 -0.378430 0.923734
0.000000 -0.890625 0.687500 0.000000 -0.346507 0.938017
-0.062500 -0.882813 0.695312 0.058870 -0.378430 0.923734
0.117188 -0.835938 0.710937 0.130711 -0.318644 0.938810
-0.117188 -0.835938 0.710937 -0.130711 -0.318644 0.938810
-0.109375 -0.718750 0.734375 -0.145940 -0.120182 0.981933
0.078125 -0.445313 0.750000 0.134098 0.006256 0.990936
0.117188 -0.687500 0.734375 0.181524 -0.045198 0.982330
-0.117188 -0.687500 0.734375 -0.181524 -0.045198 0.982330
-0.078125 -0.445313 0.750000 -0.134098 0.006256 0.990936
0.109375 -0.718750 0.734375 0.145940 -0.120182 0.981933
0.000000 -0.328125 0.742188 0.000000 -0.475936 0.879452
0.000000 -0.445313 0.750000 0.000000 0.000000 1.000000
-0.085938 -0.289063 0.742188 -0.500259 -0.429243 0.751946
0.000000 -0.679688 0.734375 0.000000 -0.034059 0.999390
0.000000 -0.765625 0.734375 0.000000 -0.586963 0.809595
0.125000 -0.226563 0.750000 0.932157 -0.137761 0.334758
0.132812 -0.226563 0.796875 0.926237 -0.243049 0.288003
0.093750 -0.273438 0.781250 0.583575 -0.692862 0.423475
-0.093750 -0.273438 0.781250 -0.583575 -0.692862 0.423475
-0.132812 -0.226563 0.796875 -0.926237 -0.243049 0.288003
-0.125000 -0.226563 0.750000 -0.932157 -0.137761 0.334758
0.109375 -0.132813 0.781250 0.618641 0.775658 0.124790
-0.109375 -0.132813 0.781250 -0.618641 0.775658 0.124790
-0.101562 -0.148438 0.742188 -0.501389 -0.325327 0.801691
0.039062 -0.125000 0.781250 -0.240516 0.949034 0.203558
0.101562 -0.148438 0.742188 0.501389 -0.325327 0.801691
-0.039062 -0.125000 0.781250 0.240516 0.949034 0.203558
0.000000 -0.140625 0.742188 0.000000 0.516556 0.856227
0.000000 -0.187500 0.796875 0.000000 0.828700 0.559648
0.000000 -0.195313 0.750000 0.000000 -0.251991 0.967711
0.085938 -0.289063 0.742188 0.500259 -0.429243 0.751946
0.000000 -0.320313 0.781250 0.000000 -0.865383 0.501053
0.078125 -0.250000 0.804688 0.183294 -0.586352 0.789026
0.000000 -0.289063 0.804688 0.000000 -0.481521 0.876431
0.000000 -0.203125 0.828125 0.000000 0.157842 0.987457
0.046875 -0.148438 0.812500 -0.185736 0.595599 0.781487
-0.046875 -0.148438 0.812500 0.185736 0.595599 0.781487
0.093750 -0.156250 0.812500 0.361095 0.471267 0.804651
-0.093750 -0.156250 0.812500 -0.361095 0.471267 0.804651
0.109375 -0.226563 0.828125 0.448805 -0.314707 0.836360
-0.078125 -0.250000 0.804688 -0.183294 -0.586352 0.789026
-0.109375 -0.226563 0.828125 -0.448805 -0.314707 0.836360
0.164062 -0.242188 0.710938 0.775140 0.038667 0.630573
-0.164062 -0.242188 0.710938 -0.775140 0.038667 0.630573
0.179688 -0.312500 0.710938 0.650655 0.148747 0.744652
-0.179688 -0.312500 0.710938 -0.650655 0.148747 0.744652
0.257812 -0.312500 0.554688 0.927763 0.353008 0.120884
-0.257812 -0.312500 0.554688 -0.927763 0.353008 0.120884
0.234375 -0.250000 0.554688 0.930601 0.343516 0.126347
-0.234375 -0.250000 0.554688 -0.930601 0.343516 0.126347
0.000000 -0.773438 0.718750 0.000000 -0.961943 0.273232
0.093750 -0.742188 0.726562 -0.136845 -0.527268 0.838588
-0.093750 -0.742188 0.726562 0.136845 -0.527268 0.838588
0.093750 -0.820313 0.710937 -0.635121 0.042756 0.771203
-0.093750 -0.820313 0.710937 0.635121 0.042756 0.771203
0.046875 -0.867188 0.687500 -0.414106 0.579821 0.701621
-0.046875 -0.867188 0.687500 0.414106 0.579821 0.701621
0.046875 -0.851563 0.632812 -0.295846 0.474960 0.828761
0.000000 -0.859375 0.632812 0.000000 0.533403 0.845851
0.000000 -0.875000 0.687500 0.000000 0.558763 0.829310
0.093750 -0.812500 0.640625 -0.673757 0.115452 0.729850
-0.093750 -0.812500 0.640625 0.673757 0.115452 0.729850
0.093750 -0.750000 0.664062 -0.517655 -0.704123 0.486007
-0.093750 -0.750000 0.664062 0.517655 -0.704123 0.486007
0.000000 -0.781250 0.656250 0.000000 -0.698935 0.715171
-0.046875 -0.851563 0.632812 0.295846 0.474960 0.828761
0.187500 0.156250 0.773438 -0.010102 -0.069979 0.997467
-0.187500 0.156250 0.773438 0.010102 -0.069979 0.997467
-0.132812 0.210937 0.757812 0.200568 -0.134953 0.970306
0.171875 0.218750 0.781250 0.158055 -0.084231 0.983825
-0.171875 0.218750 0.781250 -0.158055 -0.084231 0.983825
0.179688 0.296875 0.781250 0.293405 -0.060152 0.954070
0.210938 0.375000 0.781250 0.182958 -0.102878 0.977691
-0.210938 0.375000 0.781250 -0.182958 -0.102878 0.977691
0.226562 0.109375 0.781250 -0.031709 -0.219794 0.975005
0.375000 0.015625 0.703125 0.158940 -0.498917 0.851924
0.375000 0.062500 0.742188 0.184454 -0.186316 0.964995
-0.375000 0.062500 0.742188 -0.184454 -0.186316 0.964995
0.476562 0.101562 0.718750 0.299020 -0.035615 0.953581
-0.476562 0.101562 0.718750 -0.299020 -0.035615 0.953581
0.578125 0.195312 0.679688 0.294290 -0.102023 0.950224
-0.578125 0.195312 0.679688 -0.294290 -0.102023 0.950224
0.585938 0.289062 0.687500 0.177587 -0.060762 0.982208
-0.585938 0.289062 0.687500 -0.177587 -0.060762 0.982208
0.562500 0.351562 0.695312 0.294351 0.004639 0.955657
0.421875 0.398437 0.773438 0.088687 -0.127171 0.987884
-0.562500 0.351562 0.695312 -0.294351 0.004639 0.955657
0.335938 0.429687 0.757813 0.203619 0.103183 0.973571
-0.335938 0.429687 0.757813 -0.203619 0.103183 0.973571
0.273438 0.421875 0.773438 0.131504 0.064974 0.989166
-0.273438 0.421875 0.773438 -0.131504 0.064974 0.989166
0.164062 0.414062 0.773438 0.367840 -0.283608 0.885556
0.234375 0.359375 0.757812 0.463424 -0.394910 0.793237
-0.234375 0.359375 0.757812 -0.463424 -0.394910 0.793237
0.281250 0.398437 0.765625 0.174383 -0.268319 0.947386
-0.281250 0.398437 0.765625 -0.174383 -0.268319 0.947386
0.335938 0.406250 0.750000 0.113315 -0.314188 0.942564
0.414062 0.390625 0.750000 -0.274056 -0.855617 0.439100
-0.421875 0.398437 0.773438 -0.088687 -0.127171 0.987884
-0.414062 0.390625 0.750000 0.274056 -0.855617 0.439100
0.531250 0.335937 0.679688 -0.142308 -0.582629 0.800165
-0.531250 0.335937 0.679688 0.142308 -0.582629 0.800165
0.554688 0.281250 0.671875 -0.422926 -0.107761 0.899716
0.546875 0.210937 0.671875 -0.192145 0.191351 0.962523
-0.546875 0.210937 0.671875 0.192145 0.191351 0.962523
0.460938 0.117187 0.703125 -0.165288 0.609790 0.775109
0.375000 0.085937 0.726562 0.143071 0.558672 0.816919
-0.375000 0.085937 0.726562 -0.143071 0.558672 0.816919
0.242188 0.125000 0.757812 0.432264 0.583300 0.687643
-0.226562 0.109375 0.781250 0.031709 -0.219794 0.975005
-0.242188 0.125000 0.757812 -0.432264 0.583300 0.687643
0.195312 0.296875 0.757812 0.789361 -0.203192 0.579302
-0.195312 0.296875 0.757812 -0.789361 -0.203192 0.579302
-0.179688 0.296875 0.781250 -0.293405 -0.060152 0.954070
0.195312 0.226562 0.750000 0.801630 0.010987 0.597674
-0.195312 0.226562 0.750000 -0.801630 0.010987 0.597674
0.203125 0.171875 0.750000 0.688040 0.298471 0.661397
-0.203125 0.171875 0.750000 -0.688040 0.298471 0.661397
0.109375 0.460937 0.609375 -0.459304 0.862453 0.212561
-0.109375 0.460937 0.609375 0.459304 0.862453 0.212561
0.195312 0.664062 0.617188 -0.476638 0.509445 -0.716392
-0.195312 0.664062 0.617188 0.476638 0.509445 -0.716392
0.335938 0.687500 0.593750 0.119297 0.646138 -0.753807
0.484375 0.554687 0.554688 0.226691 0.874813 -0.428114
-0.335938 0.687500 0.593750 -0.119297 0.646138 -0.753807
0.679688 0.453125 0.492188 0.345531 0.912442 -0.219123
-0.484375 0.554687 0.554688 -0.226691 0.874813 -0.428114
0.796875 0.406250 0.460938 0.695700 0.581378 -0.421827
-0.796875 0.406250 0.460938 -0.695700 0.581378 -0.421827
0.773438 0.164062 0.375000 0.930204 -0.306192 -0.202338
0.601562 -0.000000 0.414062 0.544328 -0.837153 -0.053316
-0.601562 -0.000000 0.414062 -0.544328 -0.837153 -0.053316
0.437500 -0.093750 0.468750 0.471969 -0.863674 -0.176794
-0.437500 -0.093750 0.468750 -0.471969 -0.863674 -0.176794
0.000000 -0.484375 0.281250 0.000000 -0.771081 -0.636708
0.179688 -0.414063 0.257812 0.689322 -0.668691 -0.278603
0.125000 -0.539062 0.359375 0.277078 -0.314737 -0.907804
0.000000 -0.570312 0.320312 0.000000 -0.213294 -0.976959
-0.125000 -0.539062 0.359375 -0.277078 -0.314737 -0.907804
0.140625 -0.757812 0.367187 0.151372 -0.150975 -0.976867
0.000000 -0.804688 0.343750 0.000000 -0.297342 -0.954741
-0.140625 -0.757812 0.367187 -0.151372 -0.150975 -0.976867
0.164062 -0.945313 0.437500 0.067476 -0.783166 -0.618122
0.000000 -0.976563 0.460937 0.000000 -0.881802 -0.471603
-0.164062 -0.945313 0.437500 -0.067476 -0.783166 -0.618122
0.328125 -0.945313 0.523437 0.526658 -0.834651 0.161107
0.328125 -0.914063 0.398437 0.555071 -0.476211 -0.681967
-0.328125 -0.914063 0.398437 -0.555071 -0.476211 -0.681967
0.289062 -0.710938 0.382812 0.620380 0.083468 -0.779809
-0.289062 -0.710938 0.382812 -0.620380 0.083468 -0.779809
0.250000 -0.500000 0.390625 0.779839 -0.010498 -0.625843
-0.250000 -0.500000 0.390625 -0.779839 -0.010498 -0.625843
-0.234375 -0.351563 0.406250 -0.895657 0.257729 -0.362407
-0.179688 -0.414063 0.257812 -0.689322 -0.668691 -0.278603
0.218750 -0.281250 0.429687 0.978698 -0.195837 0.061495
0.210938 -0.226563 0.468750 0.887173 -0.157720 0.433607
-0.218750 -0.281250 0.429687 -0.978698 -0.195837 0.061495
0.234375 -0.351563 0.406250 0.895657 0.257729 -0.362407
0.203125 -0.171875 0.500000 0.785699 -0.571459 0.236732
-0.203125 -0.171875 0.500000 -0.785699 -0.571459 0.236732
0.335938 0.054688 -0.664062 0.445479 -0.358348 -0.820399
0.343750 -0.148437 -0.539062 0.522263 -0.653615 -0.547685
0.000000 -0.195312 -0.671875 0.000000 -0.691275 -0.722587
-0.335938 0.054688 -0.664062 -0.445479 -0.358348 -0.820399
0.000000 0.070313 -0.828125 0.000000 -0.304941 -0.952361
0.296875 -0.312500 -0.265625 0.507065 -0.837581 -0.203314
0.000000 -0.382812 -0.351563 0.000000 -0.941649 -0.336528
-0.343750 -0.148437 -0.539062 -0.522263 -0.653615 -0.547685
0.210938 -0.390625 0.164062 0.572680 -0.819666 0.011994
-0.210938 -0.390625 0.164062 -0.572680 -0.819666 0.011994
-0.296875 -0.312500 -0.265625 -0.507065 -0.837581 -0.203314
0.000000 -0.460938 0.187500 0.000000 -0.983032 -0.183294
0.734375 -0.046875 0.070312 0.721030 -0.689810 0.065065
-0.734375 -0.046875 0.070312 -0.721030 -0.689810 0.065065
-0.773438 0.164062 0.375000 -0.930204 -0.306192 -0.202338
0.460938 0.437500 -0.703125 0.473006 0.176305 -0.863216
-0.460938 0.437500 -0.703125 -0.473006 0.176305 -0.863216
0.000000 0.562500 -0.851562 0.000000 0.365032 -0.930967
0.453125 0.851562 0.234375 0.444227 0.724418 0.527085
0.453125 0.929688 -0.070312 0.413495 0.909635 0.039460
0.000000 0.984375 -0.078125 0.000000 0.999725 0.022584
-0.453125 0.851562 0.234375 -0.444227 0.724418 0.527085
0.000000 0.898438 0.289063 0.000000 0.830622 0.556810
0.453125 0.867188 -0.382812 0.391247 0.815271 -0.426832
-0.453125 0.867188 -0.382812 -0.391247 0.815271 -0.426832
-0.453125 0.929688 -0.070312 -0.413495 0.909635 0.039460
0.000000 0.898438 -0.546875 0.000000 0.834223 -0.551378
0.726562 0.406250 0.335938 0.771722 0.631062 0.078494
-0.726562 0.406250 0.335938 -0.771722 0.631062 0.078494
-0.679688 0.453125 0.492188 -0.345531 0.912442 -0.219123
0.632812 0.453125 0.281250 0.444411 0.788537 0.425031
0.796875 0.562500 0.125000 0.741752 0.516434 0.427839
-0.796875 0.562500 0.125000 -0.741752 0.516434 0.427839
-0.632812 0.453125 0.281250 -0.444411 0.788537 0.425031
0.640625 0.703125 0.054688 0.668172 0.671865 0.319498
0.796875 0.617188 -0.117187 0.848628 0.528764 -0.014008
-0.796875 0.617188 -0.117187 -0.848628 0.528764 -0.014008
-0.640625 0.703125 0.054688 -0.668172 0.671865 0.319498
0.640625 0.750000 -0.195312 0.678396 0.731376 -0.069521
0.796875 0.539062 -0.359375 0.872158 0.314554 -0.374645
-0.796875 0.539062 -0.359375 -0.872158 0.314554 -0.374645
-0.640625 0.750000 -0.195312 -0.678396 0.731376 -0.069521
0.617188 0.328125 -0.585938 0.619648 -0.060457 -0.782525
0.640625 0.679688 -0.445312 0.607532 0.569567 -0.553575
-0.617188 0.328125 -0.585938 -0.619648 -0.060457 -0.782525
-0.773438 0.265625 -0.437500 -0.670766 -0.045289 -0.740257
-0.640625 0.679688 -0.445312 -0.607532 0.569567 -0.553575
0.460938 0.523437 0.429688 0.340648 0.883206 0.322306
-0.460938 0.523437 0.429688 -0.340648 0.883206 0.322306
0.000000 0.570312 0.570313 0.000000 0.529252 0.848445
0.000000 0.406250 0.601563 0.000000 0.859188 0.511612
0.851562 0.234375 0.054688 0.985015 -0.160466 0.063051
0.859375 0.320312 -0.046875 0.997009 -0.033296 -0.069521
-0.859375 0.320312 -0.046875 -0.997009 -0.033296 -0.069521
-0.851562 0.234375 0.054688 -0.985015 -0.160466 0.063051
0.820312 0.328125 -0.203125 0.908536 0.224219 0.352489
-0.820312 0.328125 -0.203125 -0.908536 0.224219 0.352489
0.429688 -0.195312 -0.210938 0.563280 -0.817286 -0.121311
0.406250 -0.171875 0.148437 0.579028 -0.802698 0.142705
-0.406250 -0.171875 0.148437 -0.579028 -0.802698 0.142705
0.593750 -0.125000 -0.164063 0.312296 -0.949950 0.001160
-0.593750 -0.125000 -0.164063 -0.312296 -0.949950 0.001160
-0.210938 -0.226563 0.468750 -0.887173 -0.157720 0.433607
0.640625 -0.007812 -0.429688 0.325510 -0.602924 -0.728355
0.484375 0.023438 -0.546875 0.529221 -0.505112 -0.681722
-0.640625 -0.007812 -0.429688 -0.325510 -0.602924 -0.728355
-0.429688 -0.195312 -0.210938 -0.563280 -0.817286 -0.121311
-0.484375 0.023438 -0.546875 -0.529221 -0.505112 -0.681722
0.890625 0.406250 -0.234375 -0.279244 0.768303 0.575884
0.921875 0.359375 -0.218750 0.449232 -0.038331 0.892575
1.015625 0.414063 -0.289062 0.551164 -0.078768 0.830622
-0.890625 0.406250 -0.234375 0.279244 0.768303 0.575884
-1.023438 0.476563 -0.312500 -0.018799 0.872250 0.488632
-1.015625 0.414063 -0.289062 -0.551164 -0.078768 0.830622
1.023438 0.476563 -0.312500 0.018799 0.872250 0.488632
1.187500 0.437500 -0.390625 0.321451 -0.092318 0.942381
-1.187500 0.437500 -0.390625 -0.321451 -0.092318 0.942381
1.265625 0.289063 -0.406250 -0.154454 -0.123875 0.980193
1.351562 0.320313 -0.421875 0.778802 0.167791 0.604389
-1.234375 0.507813 -0.421875 -0.383557 0.862972 0.328776
-1.351562 0.320313 -0.421875 -0.778802 0.167791 0.604389
1.210938 0.078125 -0.406250 -0.041108 0.310831 0.949553
1.281250 0.054688 -0.429688 0.652608 -0.476821 0.588794
-1.265625 0.289063 -0.406250 0.154454 -0.123875 0.980193
-1.281250 0.054688 -0.429688 -0.652608 -0.476821 0.588794
1.031250 -0.039062 -0.304688 0.538377 0.295267 0.789239
1.039062 -0.101562 -0.328125 0.502884 -0.780999 0.370312
-1.210938 0.078125 -0.406250 0.041108 0.310831 0.949553
-1.039062 -0.101562 -0.328125 -0.502884 -0.780999 0.370312
0.828125 -0.070312 -0.132812 0.329936 0.315653 0.889645
-0.828125 -0.070312 -0.132812 -0.329936 0.315653 0.889645
-1.031250 -0.039062 -0.304688 -0.538377 0.295267 0.789239
1.039062 0.000000 -0.367188 -0.186804 0.953825 0.235084
0.882812 -0.023437 -0.210938 0.162877 0.858028 0.487014
-0.882812 -0.023437 -0.210938 -0.162877 0.858028 0.487014
-1.039062 0.000000 -0.367188 0.186804 0.953825 0.235084
1.187500 0.093750 -0.445312 -0.762139 0.647084 -0.019318
-1.187500 0.093750 -0.445312 0.762139 0.647084 -0.019318
1.234375 0.250000 -0.445312 -0.984741 -0.099582 0.142613
-1.234375 0.250000 -0.445312 0.984741 -0.099582 0.142613
1.171875 0.359375 -0.437500 -0.149571 -0.745506 0.649464
-1.171875 0.359375 -0.437500 0.149571 -0.745506 0.649464
1.023438 0.343750 -0.359375 0.560442 -0.660878 0.499100
-1.023438 0.343750 -0.359375 -0.560442 -0.660878 0.499100
0.945312 0.304688 -0.289062 0.684194 -0.555773 0.472182
-0.945312 0.304688 -0.289062 -0.684194 -0.555773 0.472182
-0.921875 0.359375 -0.218750 -0.449232 -0.038331 0.892575
0.718750 -0.023437 -0.171875 0.731193 0.114414 0.672475
0.726562 0.000000 -0.070312 0.857204 -0.493118 -0.148289
-0.726562 0.000000 -0.070312 -0.857204 -0.493118 -0.148289
0.773438 -0.140625 -0.125000 0.029542 -0.634999 0.771905
-0.773438 -0.140625 -0.125000 -0.029542 -0.634999 0.771905
-0.718750 -0.023437 -0.171875 -0.731193 0.114414 0.672475
0.843750 0.289063 -0.210937 0.372723 -0.224158 0.900449
-0.843750 0.289063 -0.210937 -0.372723 -0.224158 0.900449
0.812500 -0.015625 -0.273438 0.599841 0.513138 0.613880
-0.812500 -0.015625 -0.273438 -0.599841 0.513138 0.613880
0.718750 0.039063 -0.187500 0.960936 -0.118839 0.249855
-0.718750 0.039063 -0.187500 -0.960936 -0.118839 0.249855
-0.843750 0.015625 -0.273438 -0.842036 -0.176244 0.509781
0.757812 0.093750 -0.273438 0.851466 0.041353 0.522752
0.843750 0.015625 -0.273438 0.842036 -0.176244 0.509781
-0.757812 0.093750 -0.273438 -0.851466 0.041353 0.522752
0.796875 0.203125 -0.210937 0.848354 -0.435377 0.301157
-0.796875 0.203125 -0.210937 -0.848354 -0.435377 0.301157
-0.835938 0.171875 -0.273438 -0.686361 -0.623371 0.374554
0.835938 0.171875 -0.273438 0.686361 -0.623371 0.374554
0.890625 0.242188 -0.265625 0.726066 -0.498917 0.473128
-0.890625 0.242188 -0.265625 -0.726066 -0.498917 0.473128
0.890625 0.234375 -0.320312 0.659291 -0.468490 0.588061
-0.890625 0.234375 -0.320312 -0.659291 -0.468490 0.588061
0.843750 0.171875 -0.320312 0.572527 -0.418928 0.704733
0.765625 0.093750 -0.320312 0.758354 0.266518 0.594806
-0.765625 0.093750 -0.320312 -0.758354 0.266518 0.594806
0.820312 0.085938 -0.273438 0.481368 0.634388 0.604816
0.828125 0.078125 -0.320312 0.449232 0.379864 0.808618
-0.820312 0.085938 -0.273438 -0.481368 0.634388 0.604816
0.851562 0.015625 -0.320312 0.292917 0.370922 0.881222
-0.828125 0.078125 -0.320312 -0.449232 0.379864 0.808618
0.812500 -0.015625 -0.320312 0.644978 0.310129 0.698386
-0.812500 -0.015625 -0.320312 -0.644978 0.310129 0.698386
0.882812 -0.015625 -0.265625 -0.033113 0.944914 0.325602
-0.882812 -0.015625 -0.265625 0.033113 0.944914 0.325602
0.953125 0.289063 -0.343750 0.648213 -0.420576 0.634724
-0.953125 0.289063 -0.343750 -0.648213 -0.420576 0.634724
1.039062 0.328125 -0.414062 0.461776 -0.329142 0.823664
-1.039062 0.328125 -0.414062 -0.461776 -0.329142 0.823664
1.187500 0.343750 -0.484375 -0.262398 -0.533067 0.804346
-1.187500 0.343750 -0.484375 0.262398 -0.533067 0.804346
1.257812 0.242188 -0.492187 -0.752861 -0.033784 0.657277
1.210938 0.085938 -0.484375 -0.583117 0.499893 0.640339
-1.210938 0.085938 -0.484375 0.583117 0.499893 0.640339
1.046875 0.000000 -0.421875 0.065004 0.703848 0.707358
-1.046875 0.000000 -0.421875 -0.065004 0.703848 0.707358
0.937500 0.062500 -0.335938 0.408429 0.127262 0.903836
0.890625 0.109375 -0.328125 0.195105 0.038942 0.979980
-0.851562 0.015625 -0.320312 -0.292917 0.370922 0.881222
-0.890625 0.109375 -0.328125 -0.195105 0.038942 0.979980
1.000000 0.125000 -0.367188 0.444807 -0.093692 0.890683
0.960938 0.171875 -0.351562 0.334666 -0.004578 0.942289
-0.937500 0.062500 -0.335938 -0.408429 0.127262 0.903836
-0.960938 0.171875 -0.351562 -0.334666 -0.004578 0.942289
1.054688 0.187500 -0.382812 0.314371 -0.103732 0.943602
-1.054688 0.187500 -0.382812 -0.314371 -0.103732 0.943602
-1.000000 0.125000 -0.367188 -0.444807 -0.093692 0.890683
1.109375 0.210938 -0.390625 0.383129 -0.068514 0.921140
1.085938 0.273438 -0.390625 0.289651 0.315806 0.903500
-1.015625 0.234375 -0.375000 -0.334300 0.106784 0.936369
-1.085938 0.273438 -0.390625 -0.289651 0.315806 0.903500
1.015625 0.234375 -0.375000 0.334300 0.106784 0.936369
-0.843750 0.171875 -0.320312 -0.572527 -0.418928 0.704733
-1.109375 0.210938 -0.390625 -0.383129 -0.068514 0.921140
-1.257812 0.242188 -0.492187 0.752861 -0.033784 0.657277
0.789062 -0.125000 -0.328125 -0.098849 -0.840846 -0.532151
-0.789062 -0.125000 -0.328125 0.098849 -0.840846 -0.532151
1.039062 -0.085937 -0.492188 -0.025269 -0.679586 -0.733116
-1.039062 -0.085937 -0.492188 0.025269 -0.679586 -0.733116
1.312500 0.054688 -0.531250 0.636586 -0.504318 -0.583392
1.367188 0.296875 -0.500000 0.925260 0.091830 -0.367992
-1.367188 0.296875 -0.500000 -0.925260 0.091830 -0.367992
1.250000 0.468750 -0.546875 0.286996 0.597766 -0.748497
-1.250000 0.468750 -0.546875 -0.286996 0.597766 -0.748497
1.234375 0.507813 -0.421875 0.383557 0.862972 0.328776
1.023438 0.437500 -0.484375 -0.414228 0.550890 -0.724479
-1.023438 0.437500 -0.484375 0.414228 0.550890 -0.724479
0.859375 0.382813 -0.382812 -0.650044 0.584643 -0.485336
-0.859375 0.382813 -0.382812 0.650044 0.584643 -0.485336
-1.312500 0.054688 -0.531250 -0.636586 -0.504318 -0.583392
0.773438 0.265625 -0.437500 0.670766 -0.045289 -0.740257
-0.625000 0.242187 0.562500 -0.868221 -0.004730 0.496109
-0.335938 0.406250 0.750000 -0.113315 -0.314188 0.942564
-0.554688 0.281250 0.671875 0.422926 -0.107761 0.899716
-0.460938 0.117187 0.703125 0.165288 0.609790 0.775109
3 0 1 2
3 3 4 5
3 6 2 7
3 8 3 9
3 2 10 11
3 12 13 3
3 1 14 10
3 13 15 4
3 14 16 17
3 18 19 15
3 10 17 20
3 21 18 13
3 22 23 20
3 24 18 21
3 25 22 17
3 26 19 18
3 25 27 28
3 29 30 26
3 28 31 23
3 29 24 32
3 33 34 31
3 35 29 36
3 37 33 28
3 38 30 29
3 39 40 33
3 41 38 35
3 40 42 34
3 43 35 44
3 6 45 42
3 9 43 46
3 0 6 40
3 5 41 43
3 39 47 48
3 41 5 49
3 37 50 47
3 38 41 51
3 27 52 50
3 30 38 53
3 25 54 52
3 26 30 55
3 25 16 56
3 57 19 26
3 16 14 58
3 59 15 19
3 14 1 60
3 61 4 15
3 1 0 48
3 49 5 4
3 62 60 48
3 49 61 63
3 58 60 62
3 63 61 59
3 62 56 58
3 59 57 63
3 62 54 56
3 57 64 63
3 62 52 54
3 64 55 63
3 62 50 52
3 55 53 63
3 62 47 50
3 53 51 63
3 62 48 47
3 51 49 63
3 65 66 67
3 68 69 67
3 70 65 71
3 72 73 69
3 74 75 70
3 72 76 77
3 78 79 75
3 76 80 81
3 82 83 79
3 80 84 85
3 86 87 88
3 89 90 91
3 92 93 88
3 94 90 89
3 92 95 96
3 97 98 94
3 99 100 96
3 101 98 97
3 102 103 100
3 104 101 105
3 106 107 103
3 108 104 109
3 106 110 111
3 112 113 108
3 114 115 111
3 116 113 112
3 117 118 115
3 119 116 120
3 121 122 118
3 121 119 123
3 124 115 118
3 125 126 123
3 124 127 111
3 112 128 125
3 107 111 127
3 129 130 128
3 103 107 131
3 109 132 130
3 100 103 133
3 105 134 132
3 96 100 135
3 97 136 134
3 93 96 137
3 138 139 136
3 88 93 140
3 89 141 139
3 142 143 88
3 89 144 145
3 142 146 147
3 147 148 145
3 118 122 149
3 123 126 150
3 149 122 151
3 151 122 150
3 146 152 151
3 148 147 151
3 153 154 66
3 66 154 155
3 156 153 65
3 68 155 157
3 156 70 75
3 157 158 76
3 83 159 160
3 161 162 84
3 163 75 79
3 80 76 158
3 164 165 159
3 164 166 162
3 159 165 167
3 162 161 167
3 163 160 167
3 158 168 167
3 169 170 171
3 172 173 174
3 175 170 169
3 176 177 174
3 178 175 179
3 180 181 177
3 182 178 181
3 182 183 181
3 184 171 185
3 166 164 185
3 171 186 187
3 172 185 187
3 182 188 189
3 190 188 182
3 178 189 191
3 192 190 180
3 191 193 170
3 192 176 173
3 170 193 186
3 194 195 173
3 193 191 189
3 195 188 190
3 188 187 186
3 194 187 188
3 181 179 143
3 144 177 181
3 179 169 196
3 197 174 177
3 184 198 196
3 166 174 197
3 159 83 198
3 162 166 199
3 200 198 83
3 201 85 84
3 202 196 198
3 203 201 199
3 86 143 196
3 197 144 91
3 168 204 205
3 168 158 206
3 156 163 205
3 206 158 157
3 153 156 207
3 208 157 155
3 154 153 209
3 210 155 154
3 209 211 212
3 210 213 212
3 209 207 214
3 215 208 210
3 207 205 216
3 217 206 208
3 204 218 216
3 204 206 217
3 218 212 211
3 219 212 218
3 216 211 214
3 215 219 217
3 152 146 220
3 221 148 222
3 149 152 223
3 224 222 150
3 149 225 226
3 150 126 227
3 142 228 220
3 145 148 221
3 142 229 230
3 231 141 145
3 229 140 232
3 233 139 141
3 140 137 234
3 235 136 139
3 137 135 236
3 237 134 136
3 133 238 236
3 132 134 237
3 131 239 238
3 130 132 240
3 131 127 241
3 242 128 130
3 127 124 243
3 244 125 128
3 124 245 226
3 227 126 125
3 243 226 246
3 247 227 244
3 241 243 248
3 249 244 242
3 241 250 251
3 242 252 253
3 239 251 254
3 252 240 255
3 236 238 254
3 255 240 237
3 236 256 257
3 237 235 258
3 232 234 257
3 258 235 233
3 232 259 260
3 233 231 261
3 230 260 262
3 231 263 264
3 220 228 262
3 264 263 221
3 226 225 265
3 266 267 227
3 225 223 268
3 269 224 267
3 223 220 270
3 271 221 224
3 121 117 272
3 273 119 121
3 117 114 274
3 275 116 119
3 110 276 274
3 113 116 275
3 106 277 276
3 108 113 278
3 102 279 277
3 104 108 280
3 102 99 281
3 282 101 104
3 95 283 281
3 98 101 282
3 95 92 284
3 285 94 98
3 92 87 286
3 287 90 94
3 288 289 290
3 288 291 292
3 291 290 293
3 291 294 295
3 294 293 296
3 294 297 298
3 71 67 297
3 297 67 69
3 299 71 296
3 298 69 73
3 74 299 300
3 301 73 77
3 78 74 302
3 303 77 81
3 302 293 290
3 292 295 303
3 300 296 293
3 301 303 295
3 304 290 289
3 305 306 307
3 82 78 304
3 305 81 85
3 308 309 202
3 310 201 203
3 311 308 200
3 306 85 201
3 202 309 312
3 203 91 313
3 312 286 87
3 313 91 90
3 314 315 316
3 317 318 316
3 315 319 320
3 321 316 320
3 320 319 322
3 323 324 320
3 325 322 289
3 307 323 325
3 289 322 308
3 307 306 310
3 283 284 326
3 327 285 328
3 329 314 318
3 330 331 318
3 332 333 334
3 335 336 334
3 334 333 337
3 338 339 334
3 340 337 329
3 330 338 340
3 279 281 341
3 342 282 343
3 344 341 345
3 346 342 347
3 348 345 349
3 350 346 351
3 352 349 353
3 354 350 355
3 356 357 353
3 358 359 354
3 329 337 357
3 360 338 330
3 337 333 352
3 355 339 338
3 333 332 348
3 351 335 339
3 332 361 344
3 347 362 335
3 279 344 361
3 343 280 362
3 361 332 336
3 362 363 336
3 274 276 277
3 275 273 280
3 272 277 361
3 362 280 273
3 364 272 363
3 363 273 364
3 283 365 341
3 328 282 342
3 365 366 345
3 346 367 368
3 366 369 349
3 350 370 367
3 353 349 369
3 354 359 370
3 319 371 372
3 324 323 373
3 372 371 374
3 373 327 375
3 284 286 372
3 373 287 285
3 286 309 308
3 310 376 287
3 308 322 372
3 373 323 310
3 286 312 309
3 376 313 287
3 377 378 356
3 379 359 358
3 356 378 314
3 358 330 317
3 371 378 377
3 380 375 379
3 315 378 371
3 321 324 380
3 314 378 315
3 321 381 317
3 382 383 384
3 385 386 387
3 388 384 389
3 390 387 386
3 389 391 392
3 390 393 394
3 391 395 396
3 397 394 398
3 395 399 400
3 401 398 402
3 400 399 403
3 404 405 402
3 399 406 407
3 408 409 405
3 395 410 406
3 409 411 401
3 412 410 395
3 413 397 401
3 414 412 391
3 415 390 397
3 416 414 389
3 417 387 390
3 384 383 418
3 419 420 387
3 374 421 422
3 375 327 423
3 424 403 421
3 425 375 426
3 365 326 422
3 423 327 368
3 369 427 383
3 420 428 370
3 403 407 429
3 430 408 404
3 431 421 429
3 432 433 430
3 434 431 435
3 433 432 436
3 437 431 434
3 438 439 436
3 437 440 441
3 438 428 442
3 427 441 418
3 428 420 419
3 437 427 369
3 438 367 370
3 422 431 437
3 423 367 438
3 422 421 431
3 432 426 423
3 418 441 443
3 444 442 419
3 440 445 443
3 439 442 444
3 440 434 446
3 447 436 439
3 448 449 446
3 450 436 447
3 435 451 449
3 433 450 452
3 435 429 453
3 454 430 433
3 429 407 455
3 456 408 430
3 416 418 457
3 458 419 417
3 414 416 459
3 460 417 415
3 412 414 461
3 462 415 413
3 412 463 464
3 413 411 465
3 410 464 466
3 411 409 467
3 406 466 455
3 409 408 456
3 451 468 469
3 470 452 471
3 468 472 473
3 474 471 475
3 473 472 476
3 477 478 475
3 476 479 480
3 477 481 482
3 459 457 483
3 481 458 460
3 473 483 457
3 475 444 458
3 445 469 473
3 484 444 475
3 449 469 445
3 484 471 452
3 455 468 451
3 456 454 470
3 466 472 468
3 474 478 467
3 476 472 466
3 477 465 467
3 479 476 464
3 485 486 465
3 461 480 479
3 485 482 462
3 459 480 461
3 462 482 460
3 400 424 487
3 488 425 402
3 396 400 489
3 490 402 398
3 396 491 492
3 398 394 493
3 392 492 494
3 394 393 495
3 496 494 497
3 393 386 498
3 388 497 499
3 386 385 500
3 489 487 499
3 490 498 500
3 497 494 491
3 501 495 498
3 494 492 491
3 501 493 495
3 369 382 499
3 370 359 500
3 502 499 487
3 488 500 359
3 374 377 487
3 488 379 375
3 6 0 2
3 9 3 5
3 45 6 7
3 503 8 9
3 7 2 11
3 8 12 3
3 2 1 10
3 3 13 4
3 10 14 17
3 13 18 15
3 11 10 20
3 12 21 13
3 17 22 20
3 32 24 21
3 16 25 17
3 24 26 18
3 22 25 28
3 24 29 26
3 22 28 23
3 36 29 32
3 28 33 31
3 44 35 36
3 27 37 28
3 35 38 29
3 37 39 33
3 43 41 35
3 33 40 34
3 46 43 44
3 40 6 42
3 503 9 46
3 39 0 40
3 9 5 43
3 0 39 48
3 51 41 49
3 39 37 47
3 53 38 51
3 37 27 50
3 55 30 53
3 27 25 52
3 64 26 55
3 54 25 56
3 64 57 26
3 56 16 58
3 57 59 19
3 58 14 60
3 59 61 15
3 60 1 48
3 61 49 4
3 71 65 67
3 66 68 67
3 299 70 71
3 68 72 69
3 299 74 70
3 73 72 77
3 74 78 75
3 77 76 81
3 78 82 79
3 81 80 85
3 143 86 88
3 144 89 91
3 87 92 88
3 138 94 89
3 93 92 96
3 138 97 94
3 95 99 96
3 105 101 97
3 99 102 100
3 109 104 105
3 102 106 103
3 129 108 109
3 107 106 111
3 129 112 108
3 110 114 111
3 120 116 112
3 114 117 115
3 123 119 120
3 117 121 118
3 122 121 123
3 245 124 118
3 120 125 123
3 115 124 111
3 120 112 125
3 131 107 127
3 112 129 128
3 133 103 131
3 129 109 130
3 135 100 133
3 109 105 132
3 137 96 135
3 105 97 134
3 140 93 137
3 97 138 136
3 229 88 140
3 138 89 139
3 229 142 88
3 141 89 145
3 143 142 147
3 144 147 145
3 245 118 149
3 122 123 150
3 152 149 151
3 222 151 150
3 147 146 151
3 222 148 151
3 65 153 66
3 68 66 155
3 70 156 65
3 72 68 157
3 163 156 75
3 72 157 76
3 79 83 160
3 80 161 84
3 160 163 79
3 161 80 158
3 184 164 159
3 165 164 162
3 160 159 167
3 165 162 167
3 168 163 167
3 161 158 167
3 184 169 171
3 166 172 174
3 179 175 169
3 173 176 174
3 181 178 179
3 176 180 177
3 183 182 181
3 180 182 181
3 164 184 185
3 172 166 185
3 185 171 187
3 194 172 187
3 178 182 189
3 180 190 182
3 175 178 191
3 176 192 180
3 175 191 170
3 195 192 173
3 171 170 186
3 172 194 173
3 188 193 189
3 192 195 190
3 193 188 186
3 195 194 188
3 147 181 143
3 147 144 181
3 143 179 196
3 144 197 177
3 169 184 196
3 199 166 197
3 184 159 198
3 84 162 199
3 82 200 83
3 199 201 84
3 200 202 198
3 197 203 199
3 202 86 196
3 203 197 91
3 163 168 205
3 204 168 206
3 207 156 205
3 208 206 157
3 209 153 207
3 210 208 155
3 213 154 209
3 213 210 154
3 213 209 212
3 219 210 212
3 211 209 214
3 219 215 210
3 214 207 216
3 215 217 208
3 205 204 216
3 218 204 217
3 216 218 211
3 217 219 218
3 223 152 220
3 224 221 222
3 225 149 223
3 267 224 150
3 245 149 226
3 267 150 227
3 146 142 220
3 263 145 221
3 228 142 230
3 263 231 145
3 230 229 232
3 231 233 141
3 232 140 234
3 233 235 139
3 234 137 236
3 235 237 136
3 135 133 236
3 240 132 237
3 133 131 238
3 252 130 240
3 239 131 241
3 252 242 130
3 241 127 243
3 242 244 128
3 243 124 226
3 244 227 125
3 248 243 246
3 249 247 244
3 250 241 248
3 504 249 242
3 239 241 251
3 504 242 253
3 238 239 254
3 253 252 255
3 256 236 254
3 505 255 237
3 234 236 257
3 505 237 258
3 259 232 257
3 506 258 233
3 230 232 260
3 506 233 261
3 228 230 262
3 261 231 264
3 270 220 262
3 271 264 221
3 246 226 265
3 247 266 227
3 265 225 268
3 266 269 267
3 268 223 270
3 269 271 224
3 364 121 272
3 364 273 121
3 272 117 274
3 273 275 119
3 114 110 274
3 278 113 275
3 110 106 276
3 280 108 278
3 106 102 277
3 343 104 280
3 279 102 281
3 343 282 104
3 99 95 281
3 328 98 282
3 283 95 284
3 328 285 98
3 284 92 286
3 285 287 94
3 291 288 290
3 307 288 292
3 294 291 293
3 292 291 295
3 297 294 296
3 295 294 298
3 296 71 297
3 298 297 69
3 300 299 296
3 301 298 73
3 302 74 300
3 303 301 77
3 304 78 302
3 305 303 81
3 304 302 290
3 305 292 303
3 302 300 293
3 298 301 295
3 311 304 289
3 292 305 307
3 311 82 304
3 306 305 85
3 200 308 202
3 376 310 203
3 82 311 200
3 310 306 201
3 86 202 312
3 376 203 313
3 86 312 87
3 287 313 90
3 318 314 316
3 321 317 316
3 316 315 320
3 324 321 320
3 325 320 322
3 325 323 320
3 288 325 289
3 288 307 325
3 311 289 308
3 323 307 310
3 365 283 326
3 368 327 328
3 331 329 318
3 317 330 318
3 336 332 334
3 339 335 334
3 340 334 337
3 340 338 334
3 331 340 329
3 331 330 340
3 344 279 341
3 347 342 343
3 348 344 345
3 351 346 347
3 352 348 349
3 355 350 351
3 357 352 353
3 360 354 355
3 502 356 353
3 360 358 354
3 356 329 357
3 358 360 330
3 357 337 352
3 360 355 338
3 352 333 348
3 355 351 339
3 348 332 344
3 351 347 335
3 277 279 361
3 347 343 362
3 363 361 336
3 335 362 336
3 272 274 277
3 278 275 280
3 363 272 361
3 363 362 273
3 281 283 341
3 368 328 342
3 341 365 345
3 342 346 368
3 345 366 349
3 346 350 367
3 502 353 369
3 350 354 370
3 322 319 372
3 380 324 373
3 326 372 374
3 380 373 375
3 326 284 372
3 327 373 285
3 372 286 308
3 373 310 287
3 502 377 356
3 381 379 358
3 329 356 314
3 381 358 317
3 374 371 377
3 381 380 379
3 319 315 371
3 381 321 380
3 388 382 384
3 420 385 387
3 496 388 389
3 393 390 386
3 496 389 392
3 397 390 394
3 392 391 396
3 401 397 398
3 396 395 400
3 405 401 402
3 424 400 403
3 425 404 402
3 403 399 407
3 404 408 405
3 399 395 406
3 405 409 401
3 391 412 395
3 411 413 401
3 389 414 391
3 413 415 397
3 384 416 389
3 415 417 390
3 416 384 418
3 417 419 387
3 326 374 422
3 426 375 423
3 374 424 421
3 404 425 426
3 366 365 422
3 367 423 368
3 382 369 383
3 385 420 370
3 421 403 429
3 426 430 404
3 435 431 429
3 426 432 430
3 448 434 435
3 450 433 436
3 440 437 434
3 432 438 436
3 427 437 441
3 439 438 442
3 383 427 418
3 442 428 419
3 366 437 369
3 428 438 370
3 366 422 437
3 432 423 438
3 457 418 443
3 458 444 419
3 441 440 443
3 484 439 444
3 445 440 446
3 484 447 439
3 434 448 446
3 452 450 447
3 448 435 449
3 470 433 452
3 451 435 453
3 470 454 433
3 453 429 455
3 454 456 430
3 459 416 457
3 460 458 417
3 461 414 459
3 462 460 415
3 463 412 461
3 486 462 413
3 410 412 464
3 486 413 465
3 406 410 466
3 465 411 467
3 407 406 455
3 467 409 456
3 449 451 469
3 474 470 471
3 469 468 473
3 478 474 475
3 483 473 476
3 481 477 475
3 483 476 480
3 485 477 482
3 480 459 483
3 482 481 460
3 443 473 457
3 481 475 458
3 443 445 473
3 471 484 475
3 446 449 445
3 447 484 452
3 453 455 451
3 474 456 470
3 455 466 468
3 456 474 467
3 464 476 466
3 478 477 467
3 463 479 464
3 477 485 465
3 463 461 479
3 486 485 462
3 489 400 487
3 490 488 402
3 491 396 489
3 501 490 398
3 392 396 492
3 501 398 493
3 496 392 494
3 493 394 495
3 388 496 497
3 495 393 498
3 382 388 499
3 498 386 500
3 497 489 499
3 488 490 500
3 489 497 491
3 490 501 498
3 502 369 499
3 385 370 500
3 377 502 487
3 379 488 359
3 424 374 487
3 425 488 375
