ply
format ascii 1.0
comment Created by Blender 2.71 (sub 0) - www.blender.org, source file: 'table.blend'
element vertex 576
property float x
property float y
property float z
property float nx
property float ny
property float nz
element face 1152
property list uchar uint vertex_indices
end_header
0.901854 4.246339 -0.260030 -0.568651 0.130497 -0.812128
0.978880 4.244555 -0.297425 -0.254433 0.122654 -0.959258
0.976445 4.179771 -0.300903 -0.259041 0.000000 -0.965850
1.050809 4.239682 -0.302603 0.228950 0.087252 -0.969512
1.048557 4.179771 -0.305820 0.225684 0.000000 -0.974181
1.098368 4.233026 -0.274178 0.809412 0.002197 -0.587207
1.096366 4.179771 -0.277037 0.809320 0.000000 -0.587329
1.108813 4.226368 -0.219766 0.991516 -0.085421 0.097873
1.107061 4.179771 -0.222267 0.994720 0.000000 0.102451
1.079345 4.221496 -0.153946 0.817499 -0.122410 0.562700
1.077777 4.179771 -0.156186 0.822108 0.000000 0.569292
1.017861 4.219712 -0.094355 0.568651 -0.130497 0.812128
0.940836 4.221496 -0.056960 0.249153 -0.122410 0.960662
0.939267 4.179771 -0.059200 0.253761 0.000000 0.967254
0.868907 4.226368 -0.051782 -0.247108 -0.085421 0.965178
0.867155 4.179771 -0.054283 -0.243904 0.000000 0.969787
0.821348 4.233026 -0.080207 -0.828639 0.002197 0.559740
0.819346 4.179771 -0.083066 -0.828730 0.000000 0.559618
0.810903 4.239682 -0.134619 -0.989349 0.087252 -0.116428
0.808651 4.179771 -0.137836 -0.992615 0.000000 -0.121097
0.840371 4.244555 -0.200439 -0.814386 0.122654 -0.567186
0.837935 4.179771 -0.203917 -0.818995 0.000000 -0.573779
0.909319 4.311767 -0.249369 -0.554003 0.258797 -0.791223
0.986145 4.308230 -0.287049 -0.240669 0.243202 -0.939604
1.057527 4.298568 -0.293008 0.238746 0.173009 -0.955535
1.104339 4.285368 -0.265649 0.809656 0.004364 -0.586871
1.114038 4.272169 -0.212303 0.981933 -0.169378 0.084201
1.084024 4.262506 -0.147264 0.803797 -0.242744 0.543107
1.022340 4.258969 -0.087958 0.554003 -0.258797 0.791223
0.945515 4.262506 -0.050278 0.235450 -0.242744 0.941069
0.874132 4.272169 -0.044319 -0.256691 -0.169378 0.951506
0.827320 4.285368 -0.071678 -0.828394 0.004364 0.560106
0.817622 4.298568 -0.125025 -0.979553 0.173009 -0.102451
0.847635 4.308230 -0.190064 -0.800623 0.243202 -0.547533
0.921619 4.374937 -0.231804 -0.529893 0.382672 -0.756767
0.998115 4.369708 -0.269955 -0.217994 0.359630 -0.907254
1.068597 4.355421 -0.277200 0.254860 0.255837 -0.932493
1.114179 4.335904 -0.251597 0.810053 0.006470 -0.586291
1.122648 4.316388 -0.200007 0.966155 -0.250435 0.061647
1.091733 4.302100 -0.136254 0.781152 -0.358898 0.510819
1.029720 4.296871 -0.077419 0.529893 -0.382672 0.756798
0.953224 4.302100 -0.039268 0.212836 -0.358898 0.908750
0.882742 4.316388 -0.032023 -0.272500 -0.250465 0.928953
0.837160 4.335904 -0.057626 -0.827967 0.006470 0.560686
0.828691 4.355421 -0.109216 -0.963439 0.255837 -0.079409
0.859605 4.369708 -0.172969 -0.777978 0.359630 -0.515152
0.938542 4.434768 -0.207635 -0.496719 0.499985 -0.709403
1.014585 4.427936 -0.246433 -0.186834 0.469863 -0.862697
1.083828 4.409268 -0.255447 0.277047 0.334269 -0.900815
1.127718 4.383769 -0.232262 0.810633 0.008454 -0.585467
1.134494 4.358269 -0.183089 0.944426 -0.327250 0.030641
1.102341 4.339602 -0.121105 0.750053 -0.468947 0.466353
1.039874 4.332769 -0.062918 0.496719 -0.499985 0.709403
0.963831 4.339602 -0.024119 0.181707 -0.468947 0.864315
0.894588 4.358269 -0.015105 -0.294198 -0.327219 0.897946
0.850698 4.383769 -0.038290 -0.827418 0.008454 0.561480
0.843922 4.409268 -0.087463 -0.941252 0.334269 -0.047731
0.876075 4.427936 -0.149448 -0.746788 0.469863 -0.470626
0.959800 4.490235 -0.177275 -0.455031 0.608753 -0.649861
1.035273 4.481916 -0.216887 -0.147649 0.572069 -0.806757
1.102960 4.459189 -0.228124 0.304910 0.406995 -0.861019
1.144724 4.428143 -0.207974 0.811335 0.010285 -0.584460
1.149374 4.397096 -0.161837 0.917142 -0.398419 -0.008301
1.115665 4.374369 -0.102075 0.710959 -0.570940 0.410535
1.052629 4.366050 -0.044702 0.455031 -0.608753 0.649861
0.977156 4.374369 -0.005090 0.142613 -0.570940 0.808466
0.909469 4.397096 0.006147 -0.321482 -0.398419 0.859004
0.867705 4.428143 -0.014003 -0.826716 0.010285 0.562487
0.863054 4.459189 -0.060140 -0.913388 0.406995 -0.007935
0.896764 4.481916 -0.119901 -0.707602 0.572069 -0.414686
0.985029 4.540391 -0.141244 -0.405560 0.707083 -0.579211
1.059826 4.530728 -0.181822 -0.101169 0.664510 -0.740379
1.125666 4.504329 -0.195696 0.337992 0.472732 -0.813776
1.164907 4.468267 -0.179149 0.812159 0.011933 -0.583270
1.167035 4.432205 -0.136616 0.884762 -0.462783 -0.054537
1.131479 4.405806 -0.079491 0.664541 -0.663167 0.344249
1.067766 4.396143 -0.023083 0.405560 -0.707083 0.579211
0.992969 4.405806 0.017494 0.096194 -0.663167 0.742210
0.927129 4.432205 0.031368 -0.353862 -0.462783 0.812738
0.887888 4.468267 0.014822 -0.825892 0.011933 0.563677
0.885760 4.504329 -0.027712 -0.880306 0.472732 0.039277
0.921317 4.530728 -0.084836 -0.661122 0.664510 -0.348277
1.013797 4.584376 -0.100159 -0.349162 0.793329 -0.498642
1.087823 4.573535 -0.141838 -0.048158 0.745567 -0.664663
1.151557 4.543916 -0.158720 0.375713 0.530381 -0.759911
1.187922 4.503455 -0.146282 0.813105 0.013398 -0.581896
1.187172 4.462995 -0.107856 0.847835 -0.519242 -0.107273
1.149510 4.433375 -0.053740 0.611652 -0.744072 0.268715
1.085027 4.422534 0.001567 0.349162 -0.793329 0.498672
1.011001 4.433375 0.043246 0.043306 -0.744072 0.666677
0.947267 4.462995 0.060128 -0.390790 -0.519242 0.760033
0.910902 4.503455 0.047690 -0.824915 0.013398 0.565050
0.911651 4.543916 0.009264 -0.842586 0.530381 0.093142
0.949314 4.573535 -0.044852 -0.608112 0.745567 -0.272591
1.045612 4.621439 -0.054723 -0.286782 0.865993 -0.409558
1.118786 4.609604 -0.097619 0.010437 0.813868 -0.580920
1.180191 4.577271 -0.117827 0.417402 0.578967 -0.700369
1.213374 4.533105 -0.109932 0.814173 0.014618 -0.580401
1.209443 4.488938 -0.076051 0.807031 -0.566790 -0.165563
1.169452 4.456606 -0.025260 0.553148 -0.812220 0.185156
1.104116 4.444772 0.028829 0.286782 -0.866024 0.409558
1.030942 4.456606 0.071725 -0.015168 -0.812220 0.583117
0.969537 4.488938 0.091933 -0.431623 -0.566790 0.701712
0.936354 4.533105 0.084039 -0.823878 0.014618 0.566546
0.940285 4.577271 0.050157 -0.800897 0.578967 0.152684
0.980276 4.609604 -0.000633 -0.549486 0.813868 -0.188849
1.079929 4.650944 -0.005713 -0.219489 0.923856 -0.313456
1.152184 4.638319 -0.049922 0.073672 0.868221 -0.490616
1.211076 4.603827 -0.073718 0.462386 0.617664 -0.636097
1.240827 4.556709 -0.070724 0.815302 0.015595 -0.578784
1.233465 4.509592 -0.041743 0.762993 -0.604663 -0.228462
1.190962 4.475100 0.005459 0.490036 -0.866482 0.095004
1.124706 4.462475 0.058236 0.219489 -0.923856 0.313456
1.052452 4.475100 0.102445 -0.078280 -0.866482 0.492965
0.993559 4.509592 0.126240 -0.475661 -0.604663 0.638813
0.963808 4.556709 0.123247 -0.822718 0.015595 0.568194
0.971171 4.603827 0.094266 -0.755913 0.617664 0.216956
1.013674 4.638319 0.047064 -0.486251 0.868221 -0.098544
1.116162 4.672387 0.046033 -0.148442 0.965911 -0.211982
1.187446 4.659187 0.000438 0.140446 0.907743 -0.395276
1.243686 4.623125 -0.027146 0.509903 0.645772 -0.568255
1.269814 4.573864 -0.029327 0.816523 0.016327 -0.577074
1.258828 4.524602 -0.005521 0.716483 -0.632191 -0.294870
1.213672 4.488540 0.037893 0.423383 -0.905911 -0.000122
1.146446 4.475341 0.089283 0.148442 -0.965911 0.211982
1.075163 4.488540 0.134879 -0.144932 -0.905911 0.397809
1.018922 4.524602 0.162463 -0.522141 -0.632191 0.572405
0.992794 4.573864 0.164644 -0.821528 0.016327 0.569903
1.003780 4.623125 0.140838 -0.708396 0.645772 0.284799
1.048936 4.659187 0.097423 -0.419477 0.907743 -0.003174
1.153690 4.685401 0.099629 -0.074862 0.991424 -0.106906
1.223968 4.671853 0.052597 0.209601 0.931730 -0.296518
1.277461 4.634839 0.021090 0.559099 0.662831 -0.498001
1.299836 4.584275 0.013549 0.817743 0.016755 -0.575274
1.285098 4.533712 0.031996 0.668325 -0.648885 -0.363659
1.237195 4.496698 0.071487 0.354381 -0.929868 -0.098666
1.168963 4.483150 0.121441 0.074862 -0.991424 0.106906
1.098685 4.496698 0.168472 -0.213935 -0.929868 0.299234
1.045192 4.533712 0.199980 -0.570299 -0.648885 0.503616
1.022817 4.584275 0.207520 -0.820276 0.016755 0.571673
1.037556 4.634839 0.189074 -0.659200 0.662831 0.355052
1.085459 4.671853 0.149583 -0.350322 0.931730 0.095553
1.191872 4.689764 0.154158 0.000000 0.999969 0.000000
1.261127 4.676099 0.105665 0.279977 0.939756 -0.196020
1.311825 4.638765 0.070166 0.609149 0.668538 -0.426527
1.330382 4.587766 0.057172 0.819025 0.016907 -0.573473
1.311825 4.536767 0.070166 0.619312 -0.654469 -0.433637
1.261127 4.499433 0.105665 0.284158 -0.937895 -0.198950
1.191872 4.485767 0.154158 0.000000 -0.999969 0.000000
1.122617 4.499433 0.202651 -0.284158 -0.937895 0.198950
1.071919 4.536767 0.238150 -0.619312 -0.654500 0.433637
1.053362 4.587766 0.251143 -0.819025 0.016877 0.573473
1.071919 4.638765 0.238150 -0.609149 0.668538 0.426527
1.122617 4.676099 0.202651 -0.279977 0.939756 0.196020
1.230053 4.685401 0.208687 0.074862 0.991424 0.106906
1.298285 4.671853 0.158733 0.350322 0.931730 -0.095553
1.346188 4.634839 0.119242 0.659200 0.662831 -0.355052
1.360927 4.584275 0.100796 0.820276 0.016755 -0.571673
1.338552 4.533712 0.108336 0.570299 -0.648885 -0.503616
1.285059 4.496698 0.139844 0.213935 -0.929868 -0.299234
1.214781 4.483150 0.186875 -0.074862 -0.991424 -0.106906
1.146549 4.496698 0.236829 -0.354381 -0.929868 0.098666
1.098646 4.533712 0.276320 -0.668325 -0.648885 0.363659
1.083907 4.584275 0.294767 -0.817743 0.016755 0.575274
1.106282 4.634839 0.287226 -0.559099 0.662831 0.498001
1.159775 4.671853 0.255719 -0.209601 0.931730 0.296518
1.267582 4.672387 0.262283 0.148442 0.965911 0.212012
1.334808 4.659187 0.210893 0.419477 0.907743 0.003174
1.379964 4.623126 0.167478 0.708396 0.645772 -0.284799
1.390949 4.573864 0.143672 0.821528 0.016327 -0.569903
1.364822 4.524602 0.145853 0.522141 -0.632191 -0.572405
1.308581 4.488540 0.173437 0.144932 -0.905911 -0.397809
1.237298 4.475341 0.219033 -0.148442 -0.965911 -0.211982
1.170071 4.488540 0.270423 -0.423383 -0.905911 0.000122
1.124916 4.524602 0.313837 -0.716483 -0.632191 0.294900
1.113930 4.573864 0.337643 -0.816523 0.016327 0.577074
1.140058 4.623126 0.335462 -0.509903 0.645772 0.568285
1.196298 4.659187 0.307878 -0.140446 0.907743 0.395276
1.303814 4.650944 0.314029 0.219489 0.923856 0.313456
1.370070 4.638319 0.261252 0.486251 0.868221 0.098544
1.412573 4.603827 0.214049 0.755882 0.617664 -0.216956
1.419936 4.556709 0.185069 0.822718 0.015595 -0.568194
1.390185 4.509592 0.182075 0.475661 -0.604663 -0.638813
1.331292 4.475100 0.205871 0.078280 -0.866482 -0.492965
1.259037 4.462475 0.250080 -0.219489 -0.923856 -0.313456
1.192782 4.475100 0.302857 -0.490036 -0.866482 -0.095004
1.150279 4.509592 0.350059 -0.762963 -0.604663 0.228462
1.142916 4.556709 0.379040 -0.815302 0.015595 0.578784
1.172667 4.603827 0.382033 -0.462386 0.617664 0.636097
1.231560 4.638319 0.358238 -0.073672 0.868221 0.490616
1.338132 4.621439 0.363039 0.286782 0.865993 0.409558
1.403468 4.609604 0.308949 0.549486 0.813868 0.188849
1.443459 4.577272 0.258159 0.800897 0.578967 -0.152684
1.447390 4.533105 0.224277 0.823878 0.014618 -0.566546
1.414207 4.488938 0.216383 0.431623 -0.566790 -0.701712
1.352802 4.456606 0.236591 0.015168 -0.812220 -0.583117
1.279628 4.444772 0.279486 -0.286782 -0.866024 -0.409558
1.214292 4.456606 0.333576 -0.553148 -0.812220 -0.185156
1.174301 4.488938 0.384366 -0.807031 -0.566790 0.165563
1.170370 4.533105 0.418248 -0.814173 0.014618 0.580401
1.203553 4.577272 0.426143 -0.417402 0.578967 0.700369
1.264958 4.609604 0.405935 -0.010437 0.813868 0.580920
1.369947 4.584376 0.408475 0.349162 0.793329 0.498642
1.434430 4.573535 0.353168 0.608112 0.745567 0.272561
1.472092 4.543916 0.299052 0.842586 0.530381 -0.093142
1.472842 4.503455 0.260626 0.824915 0.013398 -0.565050
1.436477 4.462995 0.248188 0.390790 -0.519242 -0.760033
1.372743 4.433375 0.265070 -0.043306 -0.744072 -0.666677
1.298717 4.422534 0.306748 -0.349162 -0.793329 -0.498642
1.234233 4.433375 0.362055 -0.611652 -0.744072 -0.268715
1.196571 4.462995 0.416172 -0.847835 -0.519242 0.107273
1.195822 4.503455 0.454597 -0.813105 0.013398 0.581896
1.232186 4.543916 0.467035 -0.375713 0.530381 0.759911
1.295920 4.573535 0.450154 0.048158 0.745567 0.664663
1.398715 4.540391 0.449560 0.405560 0.707083 0.579211
1.462427 4.530728 0.393152 0.661122 0.664510 0.348277
1.497983 4.504329 0.336028 0.880306 0.472732 -0.039277
1.495856 4.468267 0.293494 0.825892 0.011933 -0.563677
1.456615 4.432205 0.276948 0.353862 -0.462783 -0.812738
1.390775 4.405806 0.290822 -0.096194 -0.663167 -0.742210
1.315978 4.396143 0.331399 -0.405560 -0.707083 -0.579211
1.252265 4.405806 0.387807 -0.664541 -0.663167 -0.344249
1.216709 4.432205 0.444931 -0.884762 -0.462783 0.054537
1.218837 4.468267 0.487465 -0.812159 0.011933 0.583270
1.258078 4.504329 0.504012 -0.337992 0.472732 0.813776
1.323918 4.530728 0.490138 0.101169 0.664510 0.740379
1.423944 4.490235 0.485591 0.455031 0.608753 0.649861
1.486980 4.481917 0.428217 0.707602 0.572069 0.414686
1.520689 4.459189 0.368455 0.913388 0.406995 0.007935
1.516039 4.428143 0.322319 0.826716 0.010285 -0.562487
1.474275 4.397096 0.302169 0.321482 -0.398419 -0.859004
1.406588 4.374369 0.313406 -0.142613 -0.570940 -0.808496
1.331115 4.366050 0.353018 -0.455031 -0.608753 -0.649861
1.268078 4.374369 0.410391 -0.710959 -0.570940 -0.410535
1.234369 4.397096 0.470153 -0.917142 -0.398419 0.008301
1.239020 4.428143 0.516290 -0.811335 0.010285 0.584460
1.280784 4.459189 0.536439 -0.304910 0.406995 0.861019
1.348470 4.481917 0.525203 0.147649 0.572100 0.806757
1.445202 4.434768 0.515950 0.496719 0.499985 0.709403
1.507668 4.427936 0.457763 0.746788 0.469863 0.470626
1.539822 4.409268 0.395779 0.941252 0.334269 0.047731
1.533045 4.383769 0.346606 0.827418 0.008454 -0.561480
1.489156 4.358269 0.323421 0.294198 -0.327250 -0.897946
1.419912 4.339602 0.332435 -0.181707 -0.468947 -0.864315
1.343870 4.332769 0.371233 -0.496719 -0.499985 -0.709403
1.281403 4.339602 0.429420 -0.750053 -0.468947 -0.466353
1.249250 4.358269 0.491404 -0.944426 -0.327250 -0.030641
1.256026 4.383769 0.540577 -0.810633 0.008454 0.585467
1.299916 4.409268 0.563763 -0.277047 0.334269 0.900815
1.369159 4.427936 0.554749 0.186834 0.469863 0.862697
1.462125 4.374938 0.540119 0.529893 0.382672 0.756767
1.524138 4.369708 0.481285 0.777978 0.359630 0.515152
1.555053 4.355421 0.417531 0.963439 0.255837 0.079409
1.546584 4.335904 0.365942 0.827967 0.006470 -0.560686
1.501002 4.316388 0.340339 0.272500 -0.250435 -0.928983
1.430520 4.302101 0.347584 -0.212836 -0.358898 -0.908750
1.354024 4.296871 0.385735 -0.529893 -0.382672 -0.756798
1.292010 4.302101 0.444569 -0.781152 -0.358898 -0.510788
1.261096 4.316388 0.508323 -0.966155 -0.250435 -0.061647
1.269565 4.335904 0.559913 -0.810053 0.006470 0.586261
1.315147 4.355421 0.585515 -0.254860 0.255837 0.932493
1.385629 4.369708 0.578270 0.217994 0.359630 0.907254
1.474424 4.311767 0.557685 0.554003 0.258797 0.791223
1.536108 4.308230 0.498380 0.800623 0.243233 0.547533
1.566122 4.298568 0.433340 0.979553 0.173009 0.102451
1.556424 4.285368 0.379994 0.828394 0.004364 -0.560106
1.509612 4.272169 0.352635 0.256691 -0.169378 -0.951506
1.438229 4.262506 0.358594 -0.235450 -0.242744 -0.941069
1.361403 4.258969 0.396274 -0.554003 -0.258797 -0.791223
1.299720 4.262506 0.455579 -0.803797 -0.242744 -0.543107
1.269706 4.272169 0.520619 -0.981933 -0.169378 -0.084201
1.279404 4.285368 0.573965 -0.809656 0.004364 0.586871
1.326216 4.298568 0.601324 -0.238746 0.173009 0.955535
1.397599 4.308230 0.595365 0.240669 0.243202 0.939604
1.481889 4.246339 0.568346 0.568651 0.130497 0.812128
1.543373 4.244555 0.508755 0.814386 0.122654 0.567186
1.572840 4.239682 0.442935 0.989349 0.087252 0.116428
1.562396 4.233026 0.388523 0.828639 0.002197 -0.559740
1.514837 4.226369 0.360097 0.247108 -0.085421 -0.965178
1.442908 4.221496 0.365276 -0.249153 -0.122410 -0.960662
1.365882 4.219712 0.402671 -0.568651 -0.130497 -0.812128
1.304399 4.221496 0.462261 -0.817499 -0.122410 -0.562731
1.274931 4.226369 0.528081 -0.991516 -0.085421 -0.097873
1.285376 4.233026 0.582494 -0.809412 0.002197 0.587207
1.332935 4.239682 0.610919 -0.228950 0.087252 0.969512
1.404863 4.244555 0.605740 0.254433 0.122654 0.959258
1.484392 4.179771 0.571920 0.573565 0.000000 0.819147
1.545809 4.179771 0.512233 0.818995 0.000000 0.573748
1.575093 4.179771 0.446152 0.992615 0.000000 0.121097
1.564398 4.179771 0.391382 0.828730 0.000000 -0.559618
1.516589 4.179771 0.362599 0.243904 0.000000 -0.969787
1.444477 4.179771 0.367516 -0.253761 0.000000 -0.967254
1.367384 4.179771 0.404815 -0.573565 0.000000 -0.819147
1.305967 4.179771 0.464502 -0.822108 0.000000 -0.569292
1.276683 4.179771 0.530583 -0.994720 0.000000 -0.102451
1.287378 4.179771 0.585353 -0.809320 0.000000 0.587329
1.335187 4.179771 0.614136 -0.225684 0.000000 0.974181
1.407299 4.179771 0.609219 0.259041 0.000000 0.965850
1.481889 4.113204 0.568346 0.568651 -0.130497 0.812128
1.543373 4.114987 0.508755 0.814386 -0.122654 0.567186
1.572840 4.119861 0.442935 0.989349 -0.087252 0.116428
1.562396 4.126517 0.388523 0.828639 -0.002197 -0.559740
1.514837 4.133174 0.360097 0.247139 0.085421 -0.965178
1.442908 4.138047 0.365276 -0.249153 0.122410 -0.960662
1.365882 4.139831 0.402671 -0.568651 0.130497 -0.812128
1.304399 4.138047 0.462261 -0.817499 0.122410 -0.562731
1.274931 4.133174 0.528081 -0.991516 0.085421 -0.097873
1.285376 4.126517 0.582494 -0.809412 -0.002197 0.587207
1.332935 4.119861 0.610919 -0.228950 -0.087252 0.969512
1.404863 4.114987 0.605740 0.254433 -0.122654 0.959258
1.474424 4.047776 0.557685 0.554033 -0.258797 0.791223
1.536108 4.051312 0.498380 0.800623 -0.243202 0.547533
1.566122 4.060975 0.433340 0.979553 -0.173009 0.102451
1.556424 4.074175 0.379994 0.828394 -0.004364 -0.560106
1.509612 4.087374 0.352635 0.256691 0.169378 -0.951506
1.438229 4.097037 0.358594 -0.235450 0.242744 -0.941069
1.361403 4.100574 0.396274 -0.554033 0.258797 -0.791223
1.299720 4.097037 0.455579 -0.803766 0.242744 -0.543107
1.269706 4.087374 0.520619 -0.981933 0.169378 -0.084201
1.279404 4.074175 0.573965 -0.809656 -0.004364 0.586871
1.326216 4.060975 0.601324 -0.238746 -0.173009 0.955535
1.397599 4.051312 0.595365 0.240669 -0.243202 0.939604
1.462125 3.984606 0.540120 0.529893 -0.382672 0.756798
1.524139 3.989835 0.481285 0.777978 -0.359630 0.515152
1.555053 4.004122 0.417531 0.963439 -0.255837 0.079409
1.546584 4.023639 0.365942 0.827967 -0.006470 -0.560686
1.501002 4.043156 0.340339 0.272500 0.250435 -0.928953
1.430520 4.057443 0.347584 -0.212836 0.358898 -0.908750
1.354024 4.062672 0.385735 -0.529893 0.382672 -0.756767
1.292010 4.057443 0.444569 -0.781152 0.358898 -0.510819
1.261096 4.043155 0.508323 -0.966155 0.250465 -0.061647
1.269565 4.023639 0.559913 -0.810053 -0.006470 0.586291
1.315147 4.004122 0.585515 -0.254860 -0.255837 0.932493
1.385629 3.989835 0.578271 0.217994 -0.359630 0.907254
1.445202 3.924775 0.515950 0.496719 -0.499985 0.709403
1.507669 3.931607 0.457763 0.746788 -0.469863 0.470626
1.539822 3.950275 0.395779 0.941252 -0.334269 0.047731
1.533045 3.975774 0.346606 0.827418 -0.008454 -0.561480
1.489156 4.001274 0.323421 0.294198 0.327219 -0.897946
1.419913 4.019941 0.332435 -0.181707 0.468947 -0.864315
1.343870 4.026773 0.371233 -0.496719 0.499985 -0.709403
1.281403 4.019941 0.429420 -0.750053 0.468947 -0.466353
1.249250 4.001274 0.491405 -0.944426 0.327250 -0.030641
1.256026 3.975774 0.540577 -0.810633 -0.008454 0.585467
1.299916 3.950275 0.563763 -0.277047 -0.334269 0.900815
1.369159 3.931607 0.554749 0.186834 -0.469863 0.862697
1.423944 3.869307 0.485591 0.455031 -0.608753 0.649861
1.486980 3.877626 0.428217 0.707602 -0.572069 0.414686
1.520689 3.900354 0.368455 0.913388 -0.406995 0.007935
1.516039 3.931400 0.322319 0.826716 -0.010285 -0.562487
1.474275 3.962446 0.302169 0.321482 0.398419 -0.858974
1.406588 3.985174 0.313405 -0.142613 0.570940 -0.808496
1.331115 3.993493 0.353018 -0.455031 0.608753 -0.649861
1.268078 3.985174 0.410391 -0.710959 0.570940 -0.410535
1.234369 3.962446 0.470153 -0.917142 0.398419 0.008301
1.239020 3.931400 0.516290 -0.811335 -0.010285 0.584460
1.280784 3.900354 0.536439 -0.304910 -0.406995 0.861019
1.348470 3.877626 0.525203 0.147649 -0.572100 0.806757
1.398715 3.819152 0.449560 0.405560 -0.707083 0.579211
1.462427 3.828815 0.393152 0.661122 -0.664510 0.348277
1.497983 3.855214 0.336028 0.880306 -0.472732 -0.039277
1.495856 3.891276 0.293494 0.825892 -0.011933 -0.563677
1.456615 3.927338 0.276948 0.353862 0.462783 -0.812738
1.390775 3.953737 0.290822 -0.096194 0.663167 -0.742210
1.315978 3.963400 0.331399 -0.405560 0.707083 -0.579211
1.252265 3.953737 0.387807 -0.664541 0.663167 -0.344249
1.216709 3.927338 0.444931 -0.884762 0.462783 0.054537
1.218837 3.891276 0.487465 -0.812159 -0.011933 0.583270
1.258078 3.855214 0.504012 -0.337992 -0.472732 0.813776
1.323918 3.828815 0.490138 0.101169 -0.664510 0.740379
1.369947 3.775167 0.408475 0.349162 -0.793329 0.498642
1.434430 3.786008 0.353168 0.608112 -0.745567 0.272591
1.472092 3.815627 0.299052 0.842586 -0.530381 -0.093142
1.472842 3.856088 0.260626 0.824915 -0.013398 -0.565050
1.436477 3.896548 0.248188 0.390790 0.519242 -0.760033
1.372743 3.926167 0.265070 -0.043306 0.744072 -0.666646
1.298717 3.937009 0.306748 -0.349162 0.793329 -0.498672
1.234234 3.926167 0.362056 -0.611652 0.744072 -0.268715
1.196571 3.896548 0.416172 -0.847835 0.519242 0.107273
1.195822 3.856088 0.454597 -0.813105 -0.013398 0.581927
1.232187 3.815627 0.467036 -0.375713 -0.530381 0.759911
1.295921 3.786008 0.450154 0.048158 -0.745567 0.664663
1.338132 3.738104 0.363039 0.286782 -0.866024 0.409558
1.403468 3.749939 0.308949 0.549486 -0.813868 0.188849
1.443459 3.782271 0.258159 0.800897 -0.578967 -0.152715
1.447390 3.826438 0.224277 0.823878 -0.014618 -0.566546
1.414207 3.870605 0.216383 0.431623 0.566790 -0.701712
1.352802 3.902937 0.236591 0.015168 0.812220 -0.583117
1.279628 3.914771 0.279486 -0.286782 0.866024 -0.409558
1.214292 3.902937 0.333576 -0.553148 0.812220 -0.185156
1.174301 3.870605 0.384366 -0.807031 0.566790 0.165593
1.170370 3.826438 0.418248 -0.814173 -0.014618 0.580401
1.203553 3.782271 0.426143 -0.417402 -0.578967 0.700369
1.264958 3.749939 0.405935 -0.010437 -0.813868 0.580950
1.303815 3.708599 0.314028 0.219489 -0.923856 0.313456
1.370070 3.721224 0.261252 0.486251 -0.868221 0.098544
1.412573 3.755717 0.214049 0.755913 -0.617664 -0.216956
1.419936 3.802834 0.185069 0.822718 -0.015595 -0.568163
1.390185 3.849951 0.182075 0.475661 0.604663 -0.638813
1.331292 3.884443 0.205871 0.078280 0.866482 -0.492965
1.259037 3.897068 0.250080 -0.219489 0.923856 -0.313456
1.192782 3.884443 0.302857 -0.490036 0.866482 -0.095004
1.150279 3.849951 0.350059 -0.762963 0.604663 0.228462
1.142916 3.802834 0.379040 -0.815302 -0.015595 0.578784
1.172667 3.755717 0.382033 -0.462416 -0.617664 0.636097
1.231560 3.721224 0.358238 -0.073672 -0.868221 0.490616
1.267582 3.687156 0.262283 0.148442 -0.965911 0.212012
1.334808 3.700356 0.210893 0.419477 -0.907743 0.003174
1.379964 3.736418 0.167478 0.708396 -0.645772 -0.284768
1.390949 3.785679 0.143672 0.821528 -0.016327 -0.569903
1.364822 3.834941 0.145853 0.522141 0.632191 -0.572405
1.308581 3.871003 0.173437 0.144932 0.905911 -0.397809
1.237298 3.884202 0.219033 -0.148442 0.965911 -0.211982
1.170072 3.871003 0.270423 -0.423383 0.905911 0.000122
1.124916 3.834941 0.313837 -0.716483 0.632191 0.294870
1.113930 3.785679 0.337643 -0.816523 -0.016327 0.577074
1.140058 3.736418 0.335462 -0.509903 -0.645772 0.568285
1.196298 3.700356 0.307878 -0.140446 -0.907743 0.395276
1.230054 3.674141 0.208687 0.074862 -0.991424 0.106906
1.298285 3.687690 0.158733 0.350322 -0.931730 -0.095553
1.346188 3.724705 0.119242 0.659200 -0.662831 -0.355052
1.360927 3.775268 0.100796 0.820276 -0.016755 -0.571673
1.338552 3.825830 0.108336 0.570299 0.648885 -0.503616
1.285059 3.862845 0.139844 0.213935 0.929868 -0.299234
1.214781 3.876394 0.186875 -0.074862 0.991424 -0.106906
1.146549 3.862845 0.236829 -0.354381 0.929868 0.098666
1.098646 3.825830 0.276320 -0.668325 0.648885 0.363659
1.083908 3.775268 0.294767 -0.817743 -0.016755 0.575274
1.106283 3.724705 0.287226 -0.559099 -0.662831 0.498001
1.159776 3.687690 0.255719 -0.209601 -0.931730 0.296518
1.191872 3.669778 0.154158 0.000000 -1.000000 0.000000
1.261127 3.683444 0.105665 0.279977 -0.939756 -0.196020
1.311825 3.720778 0.070166 0.609149 -0.668538 -0.426527
1.330382 3.771777 0.057172 0.819025 -0.016907 -0.573473
1.311825 3.822776 0.070166 0.619312 0.654469 -0.433637
1.261127 3.860110 0.105665 0.284158 0.937895 -0.198950
1.191872 3.873775 0.154158 0.000000 1.000000 0.000000
1.122617 3.860110 0.202651 -0.284158 0.937895 0.198950
1.071919 3.822776 0.238150 -0.619312 0.654469 0.433637
1.053362 3.771777 0.251143 -0.819025 -0.016907 0.573473
1.071919 3.720778 0.238150 -0.609149 -0.668538 0.426527
1.122617 3.683444 0.202651 -0.279977 -0.939756 0.196020
1.153690 3.674141 0.099629 -0.074862 -0.991424 -0.106906
1.223968 3.687690 0.052597 0.209601 -0.931730 -0.296518
1.277462 3.724705 0.021090 0.559099 -0.662831 -0.498001
1.299836 3.775267 0.013549 0.817743 -0.016755 -0.575274
1.285098 3.825830 0.031996 0.668325 0.648885 -0.363659
1.237195 3.862845 0.071487 0.354381 0.929868 -0.098697
1.168963 3.876393 0.121441 0.074862 0.991424 0.106906
1.098685 3.862845 0.168472 -0.213935 0.929868 0.299234
1.045192 3.825830 0.199980 -0.570299 0.648885 0.503616
1.022817 3.775267 0.207520 -0.820276 -0.016755 0.571673
1.037556 3.724705 0.189074 -0.659200 -0.662831 0.355052
1.085459 3.687690 0.149583 -0.350322 -0.931730 0.095553
1.116162 3.687156 0.046033 -0.148442 -0.965911 -0.211982
1.187446 3.700356 0.000438 0.140446 -0.907743 -0.395276
1.243686 3.736418 -0.027146 0.509903 -0.645772 -0.568285
1.269814 3.785679 -0.029327 0.816523 -0.016327 -0.577074
1.258828 3.834941 -0.005521 0.716483 0.632191 -0.294900
1.213672 3.871002 0.037893 0.423383 0.905911 -0.000122
1.146446 3.884202 0.089283 0.148442 0.965911 0.211982
1.075163 3.871002 0.134879 -0.144932 0.905911 0.397809
1.018922 3.834941 0.162463 -0.522141 0.632191 0.572405
0.992795 3.785679 0.164644 -0.821528 -0.016327 0.569903
1.003780 3.736418 0.140838 -0.708396 -0.645772 0.284768
1.048936 3.700356 0.097423 -0.419477 -0.907743 -0.003174
1.079929 3.708599 -0.005713 -0.219489 -0.923856 -0.313456
1.152184 3.721224 -0.049922 0.073672 -0.868221 -0.490616
1.211076 3.755717 -0.073718 0.462386 -0.617664 -0.636097
1.240827 3.802834 -0.070724 0.815302 -0.015595 -0.578784
1.233465 3.849951 -0.041744 0.762963 0.604663 -0.228492
1.190962 3.884443 0.005459 0.490036 0.866482 0.095004
1.124706 3.897068 0.058235 0.219489 0.923856 0.313456
1.052452 3.884443 0.102445 -0.078280 0.866482 0.492965
0.993559 3.849951 0.126240 -0.475661 0.604663 0.638813
0.963808 3.802834 0.123247 -0.822718 -0.015595 0.568163
0.971171 3.755717 0.094266 -0.755913 -0.617664 0.216956
1.013674 3.721224 0.047064 -0.486251 -0.868221 -0.098544
1.045612 3.738105 -0.054723 -0.286782 -0.866024 -0.409558
1.118786 3.749939 -0.097619 0.010437 -0.813868 -0.580950
1.180191 3.782271 -0.117827 0.417402 -0.578967 -0.700369
1.213374 3.826438 -0.109932 0.814173 -0.014618 -0.580401
1.209443 3.870605 -0.076051 0.807031 0.566790 -0.165593
1.169452 3.902937 -0.025260 0.553148 0.812220 0.185156
1.104116 3.914771 0.028829 0.286782 0.866024 0.409558
1.030942 3.902937 0.071725 -0.015168 0.812220 0.583117
0.969537 3.870605 0.091933 -0.431623 0.566790 0.701712
0.936354 3.826438 0.084039 -0.823878 -0.014618 0.566546
0.940285 3.782271 0.050157 -0.800897 -0.578967 0.152684
0.980276 3.749939 -0.000633 -0.549486 -0.813868 -0.188849
1.013797 3.775167 -0.100159 -0.349162 -0.793329 -0.498642
1.087823 3.786008 -0.141838 -0.048158 -0.745567 -0.664663
1.151557 3.815627 -0.158720 0.375713 -0.530381 -0.759911
1.187922 3.856088 -0.146281 0.813105 -0.013398 -0.581927
1.187172 3.896548 -0.107856 0.847835 0.519242 -0.107273
1.149510 3.926167 -0.053740 0.611652 0.744072 0.268715
1.085027 3.937009 0.001568 0.349162 0.793329 0.498642
1.011001 3.926167 0.043246 0.043306 0.744072 0.666677
0.947267 3.896548 0.060128 -0.390790 0.519242 0.760033
0.910902 3.856088 0.047690 -0.824915 -0.013398 0.565050
0.911652 3.815627 0.009264 -0.842586 -0.530381 0.093142
0.949314 3.786008 -0.044852 -0.608112 -0.745567 -0.272591
0.985029 3.819152 -0.141244 -0.405560 -0.707083 -0.579211
1.059826 3.828815 -0.181822 -0.101169 -0.664510 -0.740379
1.125666 3.855214 -0.195696 0.337992 -0.472732 -0.813776
1.164907 3.891276 -0.179149 0.812159 -0.011933 -0.583270
1.167035 3.927338 -0.136616 0.884762 0.462783 -0.054537
1.131479 3.953737 -0.079491 0.664541 0.663167 0.344249
1.067766 3.963400 -0.023083 0.405560 0.707083 0.579211
0.992969 3.953737 0.017494 0.096194 0.663167 0.742210
0.927129 3.927338 0.031368 -0.353862 0.462783 0.812738
0.887888 3.891276 0.014822 -0.825892 -0.011933 0.563677
0.885760 3.855214 -0.027712 -0.880306 -0.472732 0.039277
0.921317 3.828815 -0.084836 -0.661122 -0.664510 -0.348277
0.959800 3.869307 -0.177275 -0.455031 -0.608753 -0.649861
1.035273 3.877626 -0.216887 -0.147649 -0.572100 -0.806757
1.102960 3.900354 -0.228124 0.304910 -0.406995 -0.861019
1.144724 3.931400 -0.207974 0.811335 -0.010285 -0.584460
1.149375 3.962447 -0.161837 0.917142 0.398419 -0.008301
1.115665 3.985174 -0.102075 0.710959 0.570940 0.410535
1.052629 3.993493 -0.044702 0.455031 0.608753 0.649861
0.977156 3.985174 -0.005090 0.142613 0.570940 0.808466
0.909469 3.962446 0.006147 -0.321482 0.398419 0.858974
0.867705 3.931400 -0.014003 -0.826716 -0.010285 0.562487
0.863054 3.900354 -0.060140 -0.913388 -0.406995 -0.007935
0.896764 3.877626 -0.119901 -0.707602 -0.572069 -0.414686
0.938542 3.924775 -0.207635 -0.496719 -0.499985 -0.709403
1.014585 3.931607 -0.246433 -0.186834 -0.469863 -0.862697
1.083828 3.950274 -0.255447 0.277047 -0.334269 -0.900815
1.127718 3.975774 -0.232262 0.810633 -0.008454 -0.585467
1.134494 4.001274 -0.183089 0.944426 0.327250 0.030641
1.102341 4.019941 -0.121105 0.750053 0.468947 0.466353
1.039874 4.026773 -0.062918 0.496719 0.499985 0.709403
0.963831 4.019941 -0.024119 0.181707 0.468947 0.864315
0.894588 4.001274 -0.015105 -0.294198 0.327219 0.897946
0.850698 3.975774 -0.038290 -0.827418 -0.008454 0.561480
0.843922 3.950274 -0.087463 -0.941252 -0.334269 -0.047731
0.876075 3.931607 -0.149448 -0.746788 -0.469863 -0.470626
0.921619 3.984605 -0.231804 -0.529893 -0.382672 -0.756798
0.998115 3.989835 -0.269955 -0.218024 -0.359630 -0.907254
1.068597 4.004122 -0.277200 0.254860 -0.255837 -0.932493
1.114179 4.023639 -0.251597 0.810053 -0.006470 -0.586291
1.122648 4.043155 -0.200007 0.966155 0.250435 0.061647
1.091733 4.057442 -0.136254 0.781152 0.358898 0.510788
1.029720 4.062672 -0.077419 0.529893 0.382672 0.756767
0.953224 4.057442 -0.039268 0.212836 0.358898 0.908750
0.882742 4.043155 -0.032023 -0.272469 0.250435 0.928983
0.837160 4.023639 -0.057626 -0.827967 -0.006470 0.560686
0.828691 4.004122 -0.109216 -0.963439 -0.255837 -0.079409
0.859605 3.989835 -0.172969 -0.777978 -0.359630 -0.515152
0.909319 4.047776 -0.249369 -0.554003 -0.258797 -0.791223
0.986145 4.051312 -0.287049 -0.240669 -0.243233 -0.939604
1.057527 4.060975 -0.293008 0.238746 -0.173009 -0.955535
1.104339 4.074175 -0.265649 0.809656 -0.004364 -0.586871
1.114038 4.087374 -0.212303 0.981933 0.169378 0.084201
1.084024 4.097037 -0.147264 0.803797 0.242744 0.543107
1.022340 4.100574 -0.087958 0.554033 0.258797 0.791223
0.945515 4.097037 -0.050278 0.235450 0.242744 0.941069
0.874132 4.087374 -0.044319 -0.256691 0.169378 0.951506
0.827320 4.074175 -0.071678 -0.828394 -0.004364 0.560106
0.817622 4.060975 -0.125025 -0.979553 -0.173009 -0.102451
0.847635 4.051312 -0.190064 -0.800623 -0.243202 -0.547533
0.901854 4.113204 -0.260030 -0.568651 -0.130497 -0.812128
0.978880 4.114988 -0.297425 -0.254433 -0.122654 -0.959258
1.050809 4.119861 -0.302603 0.228950 -0.087252 -0.969512
1.098368 4.126517 -0.274178 0.809412 -0.002197 -0.587207
1.108813 4.133174 -0.219766 0.991516 0.085421 0.097873
1.079345 4.138047 -0.153946 0.817499 0.122410 0.562731
1.017861 4.139831 -0.094355 0.568651 0.130497 0.812128
0.940836 4.138047 -0.056960 0.249153 0.122410 0.960662
0.868907 4.133174 -0.051782 -0.247108 0.085421 0.965178
0.821348 4.126517 -0.080207 -0.828639 -0.002197 0.559740
0.810903 4.119861 -0.134619 -0.989349 -0.087252 -0.116428
0.840371 4.114988 -0.200439 -0.814386 -0.122654 -0.567186
0.899352 4.179771 -0.263604 -0.573565 0.000000 -0.819147
1.016360 4.179771 -0.096499 0.573565 0.000000 0.819147
3 0 1 2
3 2 1 3
3 4 3 5
3 6 5 7
3 8 7 9
3 10 9 11
3 11 12 13
3 12 14 15
3 14 16 17
3 16 18 19
3 18 20 21
3 21 20 0
3 0 22 23
3 1 23 24
3 3 24 25
3 5 25 26
3 7 26 27
3 9 27 28
3 28 29 12
3 29 30 14
3 30 31 16
3 31 32 18
3 32 33 20
3 33 22 0
3 22 34 35
3 35 36 24
3 36 37 25
3 25 37 38
3 38 39 27
3 27 39 40
3 40 41 29
3 29 41 42
3 42 43 31
3 31 43 44
3 32 44 45
3 33 45 34
3 46 47 35
3 35 47 48
3 48 49 37
3 49 50 38
3 50 51 39
3 39 51 52
3 52 53 41
3 41 53 54
3 42 54 55
3 43 55 56
3 56 57 45
3 45 57 46
3 58 59 47
3 47 59 60
3 60 61 49
3 49 61 62
3 50 62 63
3 51 63 64
3 64 65 53
3 65 66 54
3 66 67 55
3 55 67 68
3 56 68 69
3 57 69 58
3 70 71 59
3 71 72 60
3 72 73 61
3 73 74 62
3 74 75 63
3 75 76 64
3 64 76 77
3 65 77 78
3 66 78 79
3 67 79 80
3 68 80 81
3 69 81 70
3 82 83 71
3 83 84 72
3 84 85 73
3 85 86 74
3 74 86 87
3 75 87 88
3 88 89 77
3 89 90 78
3 78 90 91
3 79 91 92
3 80 92 93
3 81 93 82
3 82 94 95
3 83 95 96
3 84 96 97
3 97 98 86
3 86 98 99
3 99 100 88
3 88 100 101
3 101 102 90
3 90 102 103
3 103 104 92
3 104 105 93
3 105 94 82
3 94 106 107
3 107 108 96
3 108 109 97
3 109 110 98
3 110 111 99
3 111 112 100
3 100 112 113
3 101 113 114
3 102 114 115
3 103 115 116
3 104 116 117
3 117 106 94
3 106 118 119
3 107 119 120
3 108 120 121
3 109 121 122
3 110 122 123
3 111 123 124
3 124 125 113
3 125 126 114
3 126 127 115
3 115 127 128
3 116 128 129
3 129 118 106
3 118 130 131
3 119 131 132
3 120 132 133
3 121 133 134
3 122 134 135
3 123 135 136
3 136 137 125
3 125 137 138
3 126 138 139
3 139 140 128
3 140 141 129
3 141 130 118
3 130 142 143
3 131 143 144
3 144 145 133
3 133 145 146
3 134 146 147
3 135 147 148
3 148 149 137
3 149 150 138
3 150 151 139
3 139 151 152
3 140 152 153
3 153 142 130
3 142 154 155
3 143 155 156
3 156 157 145
3 157 158 146
3 158 159 147
3 159 160 148
3 148 160 161
3 149 161 162
3 150 162 163
3 151 163 164
3 164 165 153
3 165 154 142
3 154 166 167
3 155 167 168
3 156 168 169
3 157 169 170
3 158 170 171
3 171 172 160
3 160 172 173
3 173 174 162
3 174 175 163
3 175 176 164
3 176 177 165
3 177 166 154
3 178 179 167
3 179 180 168
3 168 180 181
3 181 182 170
3 182 183 171
3 183 184 172
3 172 184 185
3 173 185 186
3 174 186 187
3 187 188 176
3 176 188 189
3 177 189 178
3 190 191 179
3 179 191 192
3 180 192 193
3 181 193 194
3 182 194 195
3 195 196 184
3 184 196 197
3 197 198 186
3 198 199 187
3 199 200 188
3 200 201 189
3 189 201 190
3 202 203 191
3 191 203 204
3 204 205 193
3 193 205 206
3 206 207 195
3 195 207 208
3 208 209 197
3 197 209 210
3 210 211 199
3 199 211 212
3 212 213 201
3 201 213 202
3 214 215 203
3 203 215 216
3 216 217 205
3 217 218 206
3 218 219 207
3 207 219 220
3 220 221 209
3 209 221 222
3 210 222 223
3 211 223 224
3 212 224 225
3 213 225 214
3 226 227 215
3 215 227 228
3 216 228 229
3 217 229 230
3 218 230 231
3 219 231 232
3 232 233 221
3 233 234 222
3 234 235 223
3 235 236 224
3 236 237 225
3 225 237 226
3 238 239 227
3 227 239 240
3 228 240 241
3 229 241 242
3 230 242 243
3 231 243 244
3 244 245 233
3 245 246 234
3 246 247 235
3 247 248 236
3 248 249 237
3 237 249 238
3 250 251 239
3 251 252 240
3 252 253 241
3 253 254 242
3 254 255 243
3 255 256 244
3 244 256 257
3 245 257 258
3 246 258 259
3 247 259 260
3 248 260 261
3 249 261 250
3 250 262 263
3 251 263 264
3 252 264 265
3 253 265 266
3 254 266 267
3 255 267 268
3 268 269 257
3 269 270 258
3 270 271 259
3 271 272 260
3 272 273 261
3 273 262 250
3 274 275 263
3 275 276 264
3 264 276 277
3 265 277 278
3 266 278 279
3 279 280 268
3 268 280 281
3 281 282 270
3 270 282 283
3 271 283 284
3 272 284 285
3 273 285 274
3 274 286 287
3 287 288 276
3 288 289 277
3 289 290 278
3 290 291 279
3 291 292 280
3 280 292 293
3 281 293 294
3 282 294 295
3 283 295 296
3 284 296 297
3 285 297 286
3 286 298 299
3 287 299 300
3 288 300 301
3 289 301 302
3 290 302 303
3 291 303 304
3 304 305 293
3 305 306 294
3 306 307 295
3 307 308 296
3 308 309 297
3 297 309 298
3 298 310 311
3 299 311 312
3 300 312 313
3 301 313 314
3 314 315 303
3 303 315 316
3 316 317 305
3 305 317 318
3 306 318 319
3 307 319 320
3 320 321 309
3 321 310 298
3 310 322 323
3 323 324 312
3 324 325 313
3 325 326 314
3 326 327 315
3 327 328 316
3 316 328 329
3 317 329 330
3 318 330 331
3 319 331 332
3 320 332 333
3 333 322 310
3 322 334 335
3 323 335 336
3 324 336 337
3 325 337 338
3 326 338 339
3 327 339 340
3 340 341 329
3 341 342 330
3 342 343 331
3 343 344 332
3 344 345 333
3 345 334 322
3 334 346 347
3 347 348 336
3 336 348 349
3 349 350 338
3 350 351 339
3 351 352 340
3 340 352 353
3 341 353 354
3 342 354 355
3 355 356 344
3 344 356 357
3 357 346 334
3 346 358 359
3 359 360 348
3 360 361 349
3 361 362 350
3 362 363 351
3 363 364 352
3 352 364 365
3 353 365 366
3 354 366 367
3 355 367 368
3 356 368 369
3 369 358 346
3 358 370 371
3 359 371 372
3 360 372 373
3 361 373 374
3 362 374 375
3 375 376 364
3 364 376 377
3 377 378 366
3 378 379 367
3 379 380 368
3 380 381 369
3 381 370 358
3 370 382 383
3 383 384 372
3 372 384 385
3 385 386 374
3 374 386 387
3 387 388 376
3 376 388 389
3 389 390 378
3 378 390 391
3 391 392 380
3 380 392 393
3 393 382 370
3 382 394 395
3 395 396 384
3 396 397 385
3 397 398 386
3 398 399 387
3 387 399 400
3 400 401 389
3 389 401 402
3 390 402 403
3 391 403 404
3 392 404 405
3 405 394 382
3 406 407 395
3 395 407 408
3 408 409 397
3 397 409 410
3 398 410 411
3 411 412 400
3 400 412 413
3 413 414 402
3 414 415 403
3 403 415 416
3 404 416 417
3 405 417 406
3 418 419 407
3 419 420 408
3 420 421 409
3 421 422 410
3 422 423 411
3 423 424 412
3 412 424 425
3 413 425 426
3 414 426 427
3 415 427 428
3 416 428 429
3 417 429 418
3 430 431 419
3 419 431 432
3 420 432 433
3 421 433 434
3 422 434 435
3 423 435 436
3 436 437 425
3 437 438 426
3 438 439 427
3 439 440 428
3 440 441 429
3 429 441 430
3 442 443 431
3 431 443 444
3 432 444 445
3 445 446 434
3 446 447 435
3 447 448 436
3 436 448 449
3 437 449 450
3 438 450 451
3 451 452 440
3 440 452 453
3 441 453 442
3 454 455 443
3 455 456 444
3 456 457 445
3 457 458 446
3 446 458 459
3 447 459 460
3 460 461 449
3 461 462 450
3 450 462 463
3 451 463 464
3 452 464 465
3 453 465 454
3 466 467 455
3 467 468 456
3 468 469 457
3 469 470 458
3 458 470 471
3 471 472 460
3 460 472 473
3 461 473 474
3 462 474 475
3 463 475 476
3 464 476 477
3 465 477 466
3 478 479 467
3 467 479 480
3 468 480 481
3 469 481 482
3 470 482 483
3 471 483 484
3 484 485 473
3 485 486 474
3 486 487 475
3 487 488 476
3 488 489 477
3 477 489 478
3 490 491 479
3 479 491 492
3 480 492 493
3 481 493 494
3 482 494 495
3 495 496 484
3 484 496 497
3 497 498 486
3 498 499 487
3 499 500 488
3 500 501 489
3 489 501 490
3 502 503 491
3 503 504 492
3 504 505 493
3 505 506 494
3 494 506 507
3 507 508 496
3 496 508 509
3 509 510 498
3 498 510 511
3 499 511 512
3 500 512 513
3 501 513 502
3 502 514 515
3 503 515 516
3 516 517 505
3 517 518 506
3 506 518 519
3 507 519 520
3 520 521 509
3 521 522 510
3 510 522 523
3 511 523 524
3 524 525 513
3 525 514 502
3 514 526 527
3 515 527 528
3 516 528 529
3 529 530 518
3 530 531 519
3 531 532 520
3 520 532 533
3 521 533 534
3 522 534 535
3 535 536 524
3 524 536 537
3 537 526 514
3 526 538 539
3 539 540 528
3 528 540 541
3 541 542 530
3 542 543 531
3 543 544 532
3 532 544 545
3 533 545 546
3 534 546 547
3 547 548 536
3 536 548 549
3 549 538 526
3 538 550 551
3 539 551 552
3 540 552 553
3 541 553 554
3 542 554 555
3 543 555 556
3 556 557 545
3 557 558 546
3 558 559 547
3 559 560 548
3 560 561 549
3 561 550 538
3 562 563 551
3 551 563 564
3 564 565 553
3 565 566 554
3 554 566 567
3 567 568 556
3 556 568 569
3 569 570 558
3 558 570 571
3 559 571 572
3 560 572 573
3 561 573 562
3 562 574 2
3 2 4 564
3 4 6 565
3 6 8 566
3 8 10 567
3 10 575 568
3 568 575 13
3 569 13 15
3 570 15 17
3 571 17 19
3 572 19 21
3 21 574 562
3 574 0 2
3 4 2 3
3 6 4 5
3 8 6 7
3 10 8 9
3 575 10 11
3 575 11 13
3 13 12 15
3 15 14 17
3 17 16 19
3 19 18 21
3 574 21 0
3 1 0 23
3 3 1 24
3 5 3 25
3 7 5 26
3 9 7 27
3 11 9 28
3 11 28 12
3 12 29 14
3 14 30 16
3 16 31 18
3 18 32 20
3 20 33 0
3 23 22 35
3 23 35 24
3 24 36 25
3 26 25 38
3 26 38 27
3 28 27 40
3 28 40 29
3 30 29 42
3 30 42 31
3 32 31 44
3 33 32 45
3 22 33 34
3 34 46 35
3 36 35 48
3 36 48 37
3 37 49 38
3 38 50 39
3 40 39 52
3 40 52 41
3 42 41 54
3 43 42 55
3 44 43 56
3 44 56 45
3 34 45 46
3 46 58 47
3 48 47 60
3 48 60 49
3 50 49 62
3 51 50 63
3 52 51 64
3 52 64 53
3 53 65 54
3 54 66 55
3 56 55 68
3 57 56 69
3 46 57 58
3 58 70 59
3 59 71 60
3 60 72 61
3 61 73 62
3 62 74 63
3 63 75 64
3 65 64 77
3 66 65 78
3 67 66 79
3 68 67 80
3 69 68 81
3 58 69 70
3 70 82 71
3 71 83 72
3 72 84 73
3 73 85 74
3 75 74 87
3 76 75 88
3 76 88 77
3 77 89 78
3 79 78 91
3 80 79 92
3 81 80 93
3 70 81 82
3 83 82 95
3 84 83 96
3 85 84 97
3 85 97 86
3 87 86 99
3 87 99 88
3 89 88 101
3 89 101 90
3 91 90 103
3 91 103 92
3 92 104 93
3 93 105 82
3 95 94 107
3 95 107 96
3 96 108 97
3 97 109 98
3 98 110 99
3 99 111 100
3 101 100 113
3 102 101 114
3 103 102 115
3 104 103 116
3 105 104 117
3 105 117 94
3 107 106 119
3 108 107 120
3 109 108 121
3 110 109 122
3 111 110 123
3 112 111 124
3 112 124 113
3 113 125 114
3 114 126 115
3 116 115 128
3 117 116 129
3 117 129 106
3 119 118 131
3 120 119 132
3 121 120 133
3 122 121 134
3 123 122 135
3 124 123 136
3 124 136 125
3 126 125 138
3 127 126 139
3 127 139 128
3 128 140 129
3 129 141 118
3 131 130 143
3 132 131 144
3 132 144 133
3 134 133 146
3 135 134 147
3 136 135 148
3 136 148 137
3 137 149 138
3 138 150 139
3 140 139 152
3 141 140 153
3 141 153 130
3 143 142 155
3 144 143 156
3 144 156 145
3 145 157 146
3 146 158 147
3 147 159 148
3 149 148 161
3 150 149 162
3 151 150 163
3 152 151 164
3 152 164 153
3 153 165 142
3 155 154 167
3 156 155 168
3 157 156 169
3 158 157 170
3 159 158 171
3 159 171 160
3 161 160 173
3 161 173 162
3 162 174 163
3 163 175 164
3 164 176 165
3 165 177 154
3 166 178 167
3 167 179 168
3 169 168 181
3 169 181 170
3 170 182 171
3 171 183 172
3 173 172 185
3 174 173 186
3 175 174 187
3 175 187 176
3 177 176 189
3 166 177 178
3 178 190 179
3 180 179 192
3 181 180 193
3 182 181 194
3 183 182 195
3 183 195 184
3 185 184 197
3 185 197 186
3 186 198 187
3 187 199 188
3 188 200 189
3 178 189 190
3 190 202 191
3 192 191 204
3 192 204 193
3 194 193 206
3 194 206 195
3 196 195 208
3 196 208 197
3 198 197 210
3 198 210 199
3 200 199 212
3 200 212 201
3 190 201 202
3 202 214 203
3 204 203 216
3 204 216 205
3 205 217 206
3 206 218 207
3 208 207 220
3 208 220 209
3 210 209 222
3 211 210 223
3 212 211 224
3 213 212 225
3 202 213 214
3 214 226 215
3 216 215 228
3 217 216 229
3 218 217 230
3 219 218 231
3 220 219 232
3 220 232 221
3 221 233 222
3 222 234 223
3 223 235 224
3 224 236 225
3 214 225 226
3 226 238 227
3 228 227 240
3 229 228 241
3 230 229 242
3 231 230 243
3 232 231 244
3 232 244 233
3 233 245 234
3 234 246 235
3 235 247 236
3 236 248 237
3 226 237 238
3 238 250 239
3 239 251 240
3 240 252 241
3 241 253 242
3 242 254 243
3 243 255 244
3 245 244 257
3 246 245 258
3 247 246 259
3 248 247 260
3 249 248 261
3 238 249 250
3 251 250 263
3 252 251 264
3 253 252 265
3 254 253 266
3 255 254 267
3 256 255 268
3 256 268 257
3 257 269 258
3 258 270 259
3 259 271 260
3 260 272 261
3 261 273 250
3 262 274 263
3 263 275 264
3 265 264 277
3 266 265 278
3 267 266 279
3 267 279 268
3 269 268 281
3 269 281 270
3 271 270 283
3 272 271 284
3 273 272 285
3 262 273 274
3 275 274 287
3 275 287 276
3 276 288 277
3 277 289 278
3 278 290 279
3 279 291 280
3 281 280 293
3 282 281 294
3 283 282 295
3 284 283 296
3 285 284 297
3 274 285 286
3 287 286 299
3 288 287 300
3 289 288 301
3 290 289 302
3 291 290 303
3 292 291 304
3 292 304 293
3 293 305 294
3 294 306 295
3 295 307 296
3 296 308 297
3 286 297 298
3 299 298 311
3 300 299 312
3 301 300 313
3 302 301 314
3 302 314 303
3 304 303 316
3 304 316 305
3 306 305 318
3 307 306 319
3 308 307 320
3 308 320 309
3 309 321 298
3 311 310 323
3 311 323 312
3 312 324 313
3 313 325 314
3 314 326 315
3 315 327 316
3 317 316 329
3 318 317 330
3 319 318 331
3 320 319 332
3 321 320 333
3 321 333 310
3 323 322 335
3 324 323 336
3 325 324 337
3 326 325 338
3 327 326 339
3 328 327 340
3 328 340 329
3 329 341 330
3 330 342 331
3 331 343 332
3 332 344 333
3 333 345 322
3 335 334 347
3 335 347 336
3 337 336 349
3 337 349 338
3 338 350 339
3 339 351 340
3 341 340 353
3 342 341 354
3 343 342 355
3 343 355 344
3 345 344 357
3 345 357 334
3 347 346 359
3 347 359 348
3 348 360 349
3 349 361 350
3 350 362 351
3 351 363 352
3 353 352 365
3 354 353 366
3 355 354 367
3 356 355 368
3 357 356 369
3 357 369 346
3 359 358 371
3 360 359 372
3 361 360 373
3 362 361 374
3 363 362 375
3 363 375 364
3 365 364 377
3 365 377 366
3 366 378 367
3 367 379 368
3 368 380 369
3 369 381 358
3 371 370 383
3 371 383 372
3 373 372 385
3 373 385 374
3 375 374 387
3 375 387 376
3 377 376 389
3 377 389 378
3 379 378 391
3 379 391 380
3 381 380 393
3 381 393 370
3 383 382 395
3 383 395 384
3 384 396 385
3 385 397 386
3 386 398 387
3 388 387 400
3 388 400 389
3 390 389 402
3 391 390 403
3 392 391 404
3 393 392 405
3 393 405 382
3 394 406 395
3 396 395 408
3 396 408 397
3 398 397 410
3 399 398 411
3 399 411 400
3 401 400 413
3 401 413 402
3 402 414 403
3 404 403 416
3 405 404 417
3 394 405 406
3 406 418 407
3 407 419 408
3 408 420 409
3 409 421 410
3 410 422 411
3 411 423 412
3 413 412 425
3 414 413 426
3 415 414 427
3 416 415 428
3 417 416 429
3 406 417 418
3 418 430 419
3 420 419 432
3 421 420 433
3 422 421 434
3 423 422 435
3 424 423 436
3 424 436 425
3 425 437 426
3 426 438 427
3 427 439 428
3 428 440 429
3 418 429 430
3 430 442 431
3 432 431 444
3 433 432 445
3 433 445 434
3 434 446 435
3 435 447 436
3 437 436 449
3 438 437 450
3 439 438 451
3 439 451 440
3 441 440 453
3 430 441 442
3 442 454 443
3 443 455 444
3 444 456 445
3 445 457 446
3 447 446 459
3 448 447 460
3 448 460 449
3 449 461 450
3 451 450 463
3 452 451 464
3 453 452 465
3 442 453 454
3 454 466 455
3 455 467 456
3 456 468 457
3 457 469 458
3 459 458 471
3 459 471 460
3 461 460 473
3 462 461 474
3 463 462 475
3 464 463 476
3 465 464 477
3 454 465 466
3 466 478 467
3 468 467 480
3 469 468 481
3 470 469 482
3 471 470 483
3 472 471 484
3 472 484 473
3 473 485 474
3 474 486 475
3 475 487 476
3 476 488 477
3 466 477 478
3 478 490 479
3 480 479 492
3 481 480 493
3 482 481 494
3 483 482 495
3 483 495 484
3 485 484 497
3 485 497 486
3 486 498 487
3 487 499 488
3 488 500 489
3 478 489 490
3 490 502 491
3 491 503 492
3 492 504 493
3 493 505 494
3 495 494 507
3 495 507 496
3 497 496 509
3 497 509 498
3 499 498 511
3 500 499 512
3 501 500 513
3 490 501 502
3 503 502 515
3 504 503 516
3 504 516 505
3 505 517 506
3 507 506 519
3 508 507 520
3 508 520 509
3 509 521 510
3 511 510 523
3 512 511 524
3 512 524 513
3 513 525 502
3 515 514 527
3 516 515 528
3 517 516 529
3 517 529 518
3 518 530 519
3 519 531 520
3 521 520 533
3 522 521 534
3 523 522 535
3 523 535 524
3 525 524 537
3 525 537 514
3 527 526 539
3 527 539 528
3 529 528 541
3 529 541 530
3 530 542 531
3 531 543 532
3 533 532 545
3 534 533 546
3 535 534 547
3 535 547 536
3 537 536 549
3 537 549 526
3 539 538 551
3 540 539 552
3 541 540 553
3 542 541 554
3 543 542 555
3 544 543 556
3 544 556 545
3 545 557 546
3 546 558 547
3 547 559 548
3 548 560 549
3 549 561 538
3 550 562 551
3 552 551 564
3 552 564 553
3 553 565 554
3 555 554 567
3 555 567 556
3 557 556 569
3 557 569 558
3 559 558 571
3 560 559 572
3 561 560 573
3 550 561 562
3 563 562 2
3 563 2 564
3 564 4 565
3 565 6 566
3 566 8 567
3 567 10 568
3 569 568 13
3 570 569 15
3 571 570 17
3 572 571 19
3 573 572 21
3 573 21 562
