ply
format ascii 1.0
comment Created by Blender 2.70 (sub 0) - www.blender.org, source file: 'table_lamp.blend'
element vertex 124
property float x
property float y
property float z
property float nx
property float ny
property float nz
element face 124
property list uchar uint vertex_indices
end_header
-0.001824 10.575632 0.043829 0.000000 0.000000 1.000000
-0.001824 12.575632 0.043829 0.000000 0.000000 1.000000
-0.005348 12.575632 0.043651 -0.101169 0.000000 0.994842
-0.005348 10.575632 0.043651 -0.101138 0.000000 0.994842
-0.008837 12.575632 0.043116 -0.201270 0.000000 0.979522
-0.008837 10.575632 0.043116 -0.201270 0.000000 0.979522
-0.012253 12.575632 0.042232 -0.299356 0.000000 0.954131
-0.012253 10.575632 0.042232 -0.299356 0.000000 0.954131
-0.015562 12.575632 0.041006 -0.394330 0.000000 0.918943
-0.015562 10.575632 0.041006 -0.394330 0.000000 0.918943
-0.018730 12.575632 0.039452 -0.485275 0.000000 0.874325
-0.018730 10.575632 0.039452 -0.485275 0.000000 0.874325
-0.021725 12.575632 0.037586 -0.571245 0.000000 0.820734
-0.021725 10.575632 0.037586 -0.571245 0.000000 0.820734
-0.024515 12.575632 0.035426 -0.651357 0.000000 0.758751
-0.024515 10.575632 0.035426 -0.651357 0.000000 0.758751
-0.027073 12.575632 0.032994 -0.724784 0.000000 0.688955
-0.027073 10.575632 0.032994 -0.724784 0.000000 0.688955
-0.029372 12.575632 0.030317 -0.790765 0.000000 0.612079
-0.029372 10.575632 0.030317 -0.790765 0.000000 0.612079
-0.031388 12.575632 0.027420 -0.848628 0.000000 0.528947
-0.031388 10.575632 0.027420 -0.848628 0.000000 0.528947
-0.033100 12.575632 0.024335 -0.897794 0.000000 0.440382
-0.033100 10.575632 0.024335 -0.897794 0.000000 0.440382
-0.034492 12.575632 0.021092 -0.937742 0.000000 0.347301
-0.034492 10.575632 0.021092 -0.937742 0.000000 0.347301
-0.035548 12.575632 0.017725 -0.968047 0.000000 0.250649
-0.035548 10.575632 0.017725 -0.968047 0.000000 0.250649
-0.036259 12.575632 0.014269 -0.988464 0.000000 0.151402
-0.036259 10.575632 0.014269 -0.988464 0.000000 0.151402
-0.036616 12.575632 0.010758 -0.998688 0.000000 0.050630
-0.036616 10.575632 0.010758 -0.998688 0.000000 0.050630
-0.036616 12.575632 0.007229 -0.998688 0.000000 -0.050630
-0.036616 10.575632 0.007229 -0.998688 0.000000 -0.050630
-0.036259 12.575632 0.003718 -0.988464 0.000000 -0.151402
-0.036259 10.575632 0.003718 -0.988464 0.000000 -0.151402
-0.035548 12.575632 0.000262 -0.968047 0.000000 -0.250649
-0.035548 10.575632 0.000262 -0.968047 0.000000 -0.250649
-0.034492 12.575632 -0.003105 -0.937742 0.000000 -0.347301
-0.034492 10.575632 -0.003105 -0.937742 0.000000 -0.347301
-0.033100 12.575632 -0.006348 -0.897794 0.000000 -0.440382
-0.033100 10.575632 -0.006348 -0.897794 0.000000 -0.440382
-0.031388 12.575632 -0.009434 -0.848628 0.000000 -0.528947
-0.031388 10.575632 -0.009434 -0.848628 0.000000 -0.528947
-0.029372 12.575632 -0.012330 -0.790765 0.000000 -0.612079
-0.029372 10.575632 -0.012330 -0.790765 0.000000 -0.612079
-0.027073 12.575632 -0.015008 -0.724784 0.000000 -0.688955
-0.027073 10.575632 -0.015008 -0.724784 0.000000 -0.688955
-0.024515 12.575632 -0.017439 -0.651357 0.000000 -0.758751
-0.024515 10.575632 -0.017439 -0.651357 0.000000 -0.758751
-0.021725 12.575632 -0.019599 -0.571245 0.000000 -0.820734
-0.021725 10.575632 -0.019599 -0.571245 0.000000 -0.820734
-0.018730 12.575632 -0.021465 -0.485275 0.000000 -0.874325
-0.018730 10.575632 -0.021465 -0.485275 0.000000 -0.874325
-0.015562 12.575632 -0.023020 -0.394330 0.000000 -0.918943
-0.015562 10.575632 -0.023020 -0.394330 0.000000 -0.918943
-0.012253 12.575632 -0.024245 -0.299356 0.000000 -0.954131
-0.012253 10.575632 -0.024245 -0.299356 0.000000 -0.954131
-0.008837 12.575632 -0.025130 -0.201270 0.000000 -0.979522
-0.008837 10.575632 -0.025130 -0.201270 0.000000 -0.979522
-0.005348 12.575632 -0.025664 -0.101138 0.000000 -0.994842
-0.005348 10.575632 -0.025664 -0.101138 0.000000 -0.994842
-0.001824 12.575632 -0.025843 0.000000 0.000000 -1.000000
-0.001824 10.575632 -0.025843 0.000000 0.000000 -1.000000
0.001700 12.575632 -0.025664 0.101169 0.000000 -0.994842
0.001700 10.575632 -0.025664 0.101169 0.000000 -0.994842
0.005188 12.575632 -0.025130 0.201270 0.000000 -0.979522
0.005188 10.575632 -0.025130 0.201270 0.000000 -0.979522
0.008605 12.575632 -0.024245 0.299356 0.000000 -0.954131
0.008605 10.575632 -0.024245 0.299356 0.000000 -0.954131
0.011914 12.575632 -0.023020 0.394330 0.000000 -0.918943
0.011914 10.575632 -0.023020 0.394330 0.000000 -0.918943
0.015082 12.575632 -0.021465 0.485275 0.000000 -0.874325
0.015082 10.575632 -0.021465 0.485275 0.000000 -0.874325
0.018077 12.575632 -0.019599 0.571245 0.000000 -0.820734
0.018077 10.575632 -0.019599 0.571245 0.000000 -0.820734
0.020867 12.575632 -0.017439 0.651357 0.000000 -0.758751
0.020867 10.575632 -0.017439 0.651357 0.000000 -0.758751
0.023425 12.575632 -0.015008 0.724784 0.000000 -0.688955
0.023425 10.575632 -0.015008 0.724784 0.000000 -0.688955
0.025723 12.575632 -0.012330 0.790765 0.000000 -0.612079
0.025723 10.575632 -0.012330 0.790765 0.000000 -0.612079
0.027739 12.575632 -0.009434 0.848628 0.000000 -0.528947
0.027739 10.575632 -0.009434 0.848628 0.000000 -0.528947
0.029452 12.575632 -0.006348 0.897794 0.000000 -0.440382
0.029452 10.575632 -0.006348 0.897794 0.000000 -0.440382
0.030844 12.575632 -0.003105 0.937742 0.000000 -0.347301
0.030844 10.575632 -0.003105 0.937742 0.000000 -0.347301
0.031900 12.575632 0.000262 0.968047 0.000000 -0.250649
0.031900 10.575632 0.000262 0.968047 0.000000 -0.250649
0.032610 12.575632 0.003718 0.988464 0.000000 -0.151402
0.032610 10.575632 0.003718 0.988464 0.000000 -0.151402
0.032967 12.575632 0.007229 0.998688 0.000000 -0.050630
0.032967 10.575632 0.007229 0.998688 0.000000 -0.050630
0.032967 12.575632 0.010758 0.998688 0.000000 0.050630
0.032967 10.575632 0.010758 0.998688 0.000000 0.050630
0.032610 12.575632 0.014269 0.988464 0.000000 0.151402
0.032610 10.575632 0.014269 0.988464 0.000000 0.151402
0.031900 12.575632 0.017725 0.968047 0.000000 0.250649
0.031900 10.575632 0.017725 0.968047 0.000000 0.250649
0.030843 12.575632 0.021092 0.937742 0.000000 0.347301
0.030843 10.575632 0.021092 0.937742 0.000000 0.347301
0.029452 12.575632 0.024335 0.897794 0.000000 0.440382
0.029452 10.575632 0.024335 0.897794 0.000000 0.440382
0.027739 12.575632 0.027420 0.848628 0.000000 0.528947
0.027739 10.575632 0.027420 0.848628 0.000000 0.528947
0.025723 12.575632 0.030317 0.790765 0.000000 0.612079
0.025723 10.575632 0.030317 0.790765 0.000000 0.612079
0.023425 12.575632 0.032994 0.724784 0.000000 0.688955
0.023425 10.575632 0.032994 0.724784 0.000000 0.688955
0.020867 12.575632 0.035426 0.651357 0.000000 0.758751
0.020867 10.575632 0.035426 0.651357 0.000000 0.758751
0.018077 12.575632 0.037586 0.571245 0.000000 0.820734
0.018077 10.575632 0.037586 0.571245 0.000000 0.820734
0.015082 12.575632 0.039452 0.485275 0.000000 0.874325
0.015082 10.575632 0.039452 0.485275 0.000000 0.874325
0.011914 12.575632 0.041006 0.394330 0.000000 0.918943
0.011914 10.575632 0.041006 0.394330 0.000000 0.918943
0.008604 12.575632 0.042232 0.299356 0.000000 0.954131
0.008604 10.575632 0.042232 0.299356 0.000000 0.954131
0.005188 12.575632 0.043116 0.201270 0.000000 0.979522
0.005188 10.575632 0.043116 0.201270 0.000000 0.979522
0.001700 12.575632 0.043651 0.101138 0.000000 0.994842
0.001700 10.575632 0.043651 0.101138 0.000000 0.994842
3 0 1 2
3 3 2 4
3 5 4 6
3 7 6 8
3 9 8 10
3 11 10 12
3 13 12 14
3 15 14 16
3 17 16 18
3 19 18 20
3 21 20 22
3 23 22 24
3 25 24 26
3 27 26 28
3 29 28 30
3 31 30 32
3 33 32 34
3 35 34 36
3 37 36 38
3 39 38 40
3 41 40 42
3 43 42 44
3 45 44 46
3 47 46 48
3 49 48 50
3 51 50 52
3 53 52 54
3 55 54 56
3 57 56 58
3 59 58 60
3 61 60 62
3 63 62 64
3 65 64 66
3 67 66 68
3 69 68 70
3 71 70 72
3 73 72 74
3 75 74 76
3 77 76 78
3 79 78 80
3 81 80 82
3 83 82 84
3 85 84 86
3 87 86 88
3 89 88 90
3 91 90 92
3 93 92 94
3 95 94 96
3 97 96 98
3 99 98 100
3 101 100 102
3 103 102 104
3 105 104 106
3 107 106 108
3 109 108 110
3 111 110 112
3 113 112 114
3 115 114 116
3 117 116 118
3 119 118 120
3 121 120 122
3 123 122 1
3 3 0 2
3 5 3 4
3 7 5 6
3 9 7 8
3 11 9 10
3 13 11 12
3 15 13 14
3 17 15 16
3 19 17 18
3 21 19 20
3 23 21 22
3 25 23 24
3 27 25 26
3 29 27 28
3 31 29 30
3 33 31 32
3 35 33 34
3 37 35 36
3 39 37 38
3 41 39 40
3 43 41 42
3 45 43 44
3 47 45 46
3 49 47 48
3 51 49 50
3 53 51 52
3 55 53 54
3 57 55 56
3 59 57 58
3 61 59 60
3 63 61 62
3 65 63 64
3 67 65 66
3 69 67 68
3 71 69 70
3 73 71 72
3 75 73 74
3 77 75 76
3 79 77 78
3 81 79 80
3 83 81 82
3 85 83 84
3 87 85 86
3 89 87 88
3 91 89 90
3 93 91 92
3 95 93 94
3 97 95 96
3 99 97 98
3 101 99 100
3 103 101 102
3 105 103 104
3 107 105 106
3 109 107 108
3 111 109 110
3 113 111 112
3 115 113 114
3 117 115 116
3 119 117 118
3 121 119 120
3 123 121 122
3 0 123 1
