ply
format ascii 1.0
comment Created by Blender 2.70 (sub 0) - www.blender.org, source file: 'table_lamp.blend'
element vertex 4
property float x
property float y
property float z
property float nx
property float ny
property float nz
element face 2
property list uchar uint vertex_indices
end_header
-9.847350 16.604795 -10.208760 1.000000 0.000000 0.000000
-9.847352 16.604795 10.684270 1.000000 0.000000 0.000000
-9.847350 -4.288235 10.684270 1.000000 0.000000 0.000000
-9.847348 -4.288235 -10.208760 1.000000 0.000000 0.000000
3 0 1 2
3 3 0 2
